<svg width="67" height="31" viewBox="0 0 67 31" fill="none" xmlns="http://www.w3.org/2000/svg">
<rect width="67" height="31" rx="15.5" fill="#151515"/>
<path d="M15.0113 19.832C16.366 18.744 17.4273 17.8533 18.1953 17.16C18.9633 16.456 19.6086 15.7253 20.1313 14.968C20.6646 14.2 20.9313 13.448 20.9313 12.712C20.9313 12.0187 20.7606 11.4747 20.4193 11.08C20.0886 10.6747 19.55 10.472 18.8033 10.472C18.078 10.472 17.5126 10.7013 17.1073 11.16C16.7126 11.608 16.4993 12.2107 16.4673 12.968H15.0593C15.102 11.7733 15.4646 10.8507 16.1473 10.2C16.83 9.54933 17.71 9.224 18.7873 9.224C19.886 9.224 20.7553 9.528 21.3953 10.136C22.046 10.744 22.3713 11.5813 22.3713 12.648C22.3713 13.5333 22.1046 14.3973 21.5713 15.24C21.0486 16.072 20.4513 16.808 19.7793 17.448C19.1073 18.0773 18.2486 18.8133 17.2033 19.656H22.7073V20.872H15.0113V19.832ZM24.3904 15.096C24.3904 13.2613 24.6891 11.832 25.2864 10.808C25.8838 9.77333 26.9291 9.256 28.4224 9.256C29.9051 9.256 30.9451 9.77333 31.5424 10.808C32.1398 11.832 32.4384 13.2613 32.4384 15.096C32.4384 16.9627 32.1398 18.4133 31.5424 19.448C30.9451 20.4827 29.9051 21 28.4224 21C26.9291 21 25.8838 20.4827 25.2864 19.448C24.6891 18.4133 24.3904 16.9627 24.3904 15.096ZM30.9984 15.096C30.9984 14.168 30.9344 13.384 30.8064 12.744C30.6891 12.0933 30.4384 11.5707 30.0544 11.176C29.6811 10.7813 29.1371 10.584 28.4224 10.584C27.6971 10.584 27.1424 10.7813 26.7584 11.176C26.3851 11.5707 26.1344 12.0933 26.0064 12.744C25.8891 13.384 25.8304 14.168 25.8304 15.096C25.8304 16.056 25.8891 16.8613 26.0064 17.512C26.1344 18.1627 26.3851 18.6853 26.7584 19.08C27.1424 19.4747 27.6971 19.672 28.4224 19.672C29.1371 19.672 29.6811 19.4747 30.0544 19.08C30.4384 18.6853 30.6891 18.1627 30.8064 17.512C30.9344 16.8613 30.9984 16.056 30.9984 15.096ZM34.2613 19.832C35.616 18.744 36.6773 17.8533 37.4453 17.16C38.2133 16.456 38.8586 15.7253 39.3813 14.968C39.9146 14.2 40.1813 13.448 40.1813 12.712C40.1813 12.0187 40.0106 11.4747 39.6693 11.08C39.3386 10.6747 38.8 10.472 38.0533 10.472C37.328 10.472 36.7626 10.7013 36.3573 11.16C35.9626 11.608 35.7493 12.2107 35.7173 12.968H34.3093C34.352 11.7733 34.7146 10.8507 35.3973 10.2C36.08 9.54933 36.96 9.224 38.0373 9.224C39.136 9.224 40.0053 9.528 40.6453 10.136C41.296 10.744 41.6213 11.5813 41.6213 12.648C41.6213 13.5333 41.3546 14.3973 40.8213 15.24C40.2986 16.072 39.7013 16.808 39.0293 17.448C38.3573 18.0773 37.4986 18.8133 36.4533 19.656H41.9573V20.872H34.2613V19.832ZM50.0884 12.184C49.8538 11 49.1231 10.408 47.8964 10.408C46.9471 10.408 46.2378 10.776 45.7684 11.512C45.2991 12.2373 45.0698 13.4373 45.0804 15.112C45.3258 14.5573 45.7311 14.1253 46.2964 13.816C46.8724 13.496 47.5124 13.336 48.2164 13.336C49.3151 13.336 50.1898 13.6773 50.8404 14.36C51.5018 15.0427 51.8324 15.9867 51.8324 17.192C51.8324 17.9173 51.6884 18.568 51.4004 19.144C51.1231 19.72 50.6964 20.1787 50.1204 20.52C49.5551 20.8613 48.8671 21.032 48.0564 21.032C46.9578 21.032 46.0991 20.7867 45.4804 20.296C44.8618 19.8053 44.4298 19.128 44.1844 18.264C43.9391 17.4 43.8164 16.3333 43.8164 15.064C43.8164 11.1493 45.1818 9.192 47.9124 9.192C48.9578 9.192 49.7791 9.47467 50.3764 10.04C50.9738 10.6053 51.3258 11.32 51.4324 12.184H50.0884ZM47.9124 14.568C47.4538 14.568 47.0218 14.664 46.6164 14.856C46.2111 15.0373 45.8804 15.32 45.6244 15.704C45.3791 16.0773 45.2564 16.536 45.2564 17.08C45.2564 17.8907 45.4911 18.552 45.9604 19.064C46.4298 19.5653 47.1018 19.816 47.9764 19.816C48.7231 19.816 49.3151 19.5867 49.7524 19.128C50.2004 18.6587 50.4244 18.0293 50.4244 17.24C50.4244 16.408 50.2111 15.7573 49.7844 15.288C49.3578 14.808 48.7338 14.568 47.9124 14.568Z" fill="white"/>
</svg>
