<svg width="157" height="40" viewBox="0 0 157 40" fill="none" xmlns="http://www.w3.org/2000/svg">
<rect width="157" height="40" rx="20" fill="#202020"/>
<circle cx="21" cy="19" r="6" fill="#D9D9D9"/>
<path d="M50.0506 22.52H45.1866L44.2906 25H42.7546L46.7866 13.912H48.4666L52.4826 25H50.9466L50.0506 22.52ZM49.6346 21.336L47.6186 15.704L45.6026 21.336H49.6346ZM62.0158 16.232V25H60.5598V23.704C60.2825 24.152 59.8931 24.504 59.3918 24.76C58.9011 25.0053 58.3571 25.128 57.7598 25.128C57.0771 25.128 56.4638 24.9893 55.9198 24.712C55.3758 24.424 54.9438 23.9973 54.6238 23.432C54.3145 22.8667 54.1598 22.1787 54.1598 21.368V16.232H55.5998V21.176C55.5998 22.04 55.8185 22.7067 56.2558 23.176C56.6931 23.6347 57.2905 23.864 58.0478 23.864C58.8265 23.864 59.4398 23.624 59.8878 23.144C60.3358 22.664 60.5598 21.9653 60.5598 21.048V16.232H62.0158ZM66.2502 17.432V22.6C66.2502 23.0267 66.3409 23.3307 66.5222 23.512C66.7035 23.6827 67.0182 23.768 67.4662 23.768H68.5382V25H67.2262C66.4155 25 65.8075 24.8133 65.4022 24.44C64.9969 24.0667 64.7942 23.4533 64.7942 22.6V17.432H63.6582V16.232H64.7942V14.024H66.2502V16.232H68.5382V17.432H66.2502ZM74.1263 25.144C73.305 25.144 72.5583 24.9573 71.8863 24.584C71.225 24.2107 70.7023 23.6827 70.3183 23C69.945 22.3067 69.7583 21.5067 69.7583 20.6C69.7583 19.704 69.9503 18.9147 70.3343 18.232C70.729 17.5387 71.2623 17.0107 71.9343 16.648C72.6063 16.2747 73.3583 16.088 74.1903 16.088C75.0223 16.088 75.7743 16.2747 76.4463 16.648C77.1183 17.0107 77.6463 17.5333 78.0303 18.216C78.425 18.8987 78.6223 19.6933 78.6223 20.6C78.6223 21.5067 78.4196 22.3067 78.0143 23C77.6196 23.6827 77.081 24.2107 76.3983 24.584C75.7156 24.9573 74.9583 25.144 74.1263 25.144ZM74.1263 23.864C74.649 23.864 75.1396 23.7413 75.5983 23.496C76.057 23.2507 76.425 22.8827 76.7023 22.392C76.9903 21.9013 77.1343 21.304 77.1343 20.6C77.1343 19.896 76.9956 19.2987 76.7183 18.808C76.441 18.3173 76.0783 17.9547 75.6303 17.72C75.1823 17.4747 74.697 17.352 74.1743 17.352C73.641 17.352 73.1503 17.4747 72.7023 17.72C72.265 17.9547 71.913 18.3173 71.6463 18.808C71.3796 19.2987 71.2463 19.896 71.2463 20.6C71.2463 21.3147 71.3743 21.9173 71.6303 22.408C71.897 22.8987 72.249 23.2667 72.6863 23.512C73.1236 23.7467 73.6036 23.864 74.1263 23.864ZM91.0807 16.072C91.7634 16.072 92.3714 16.216 92.9047 16.504C93.438 16.7813 93.8594 17.2027 94.1687 17.768C94.478 18.3333 94.6327 19.0213 94.6327 19.832V25H93.1927V20.04C93.1927 19.1653 92.974 18.4987 92.5367 18.04C92.11 17.5707 91.5287 17.336 90.7927 17.336C90.0354 17.336 89.4327 17.5813 88.9847 18.072C88.5367 18.552 88.3127 19.2507 88.3127 20.168V25H86.8727V20.04C86.8727 19.1653 86.654 18.4987 86.2167 18.04C85.79 17.5707 85.2087 17.336 84.4727 17.336C83.7154 17.336 83.1127 17.5813 82.6647 18.072C82.2167 18.552 81.9927 19.2507 81.9927 20.168V25H80.5367V16.232H81.9927V17.496C82.2807 17.0373 82.6647 16.6853 83.1447 16.44C83.6354 16.1947 84.174 16.072 84.7607 16.072C85.4967 16.072 86.1474 16.2373 86.7127 16.568C87.278 16.8987 87.6994 17.384 87.9767 18.024C88.222 17.4053 88.6274 16.9253 89.1927 16.584C89.758 16.2427 90.3874 16.072 91.0807 16.072ZM96.4771 20.584C96.4771 19.688 96.6584 18.904 97.0211 18.232C97.3837 17.5493 97.8797 17.0213 98.5091 16.648C99.1491 16.2747 99.8584 16.088 100.637 16.088C101.405 16.088 102.072 16.2533 102.637 16.584C103.202 16.9147 103.624 17.3307 103.901 17.832V16.232H105.373V25H103.901V23.368C103.613 23.88 103.181 24.3067 102.605 24.648C102.04 24.9787 101.378 25.144 100.621 25.144C99.8424 25.144 99.1384 24.952 98.5091 24.568C97.8797 24.184 97.3837 23.6453 97.0211 22.952C96.6584 22.2587 96.4771 21.4693 96.4771 20.584ZM103.901 20.6C103.901 19.9387 103.768 19.3627 103.501 18.872C103.234 18.3813 102.872 18.008 102.413 17.752C101.965 17.4853 101.469 17.352 100.925 17.352C100.381 17.352 99.8851 17.48 99.4371 17.736C98.9891 17.992 98.6317 18.3653 98.3651 18.856C98.0984 19.3467 97.9651 19.9227 97.9651 20.584C97.9651 21.256 98.0984 21.8427 98.3651 22.344C98.6317 22.8347 98.9891 23.2133 99.4371 23.48C99.8851 23.736 100.381 23.864 100.925 23.864C101.469 23.864 101.965 23.736 102.413 23.48C102.872 23.2133 103.234 22.8347 103.501 22.344C103.768 21.8427 103.901 21.2613 103.901 20.6ZM109.61 17.432V22.6C109.61 23.0267 109.7 23.3307 109.882 23.512C110.063 23.6827 110.378 23.768 110.826 23.768H111.898V25H110.586C109.775 25 109.167 24.8133 108.762 24.44C108.356 24.0667 108.154 23.4533 108.154 22.6V17.432H107.018V16.232H108.154V14.024H109.61V16.232H111.898V17.432H109.61ZM114.414 14.808C114.136 14.808 113.902 14.712 113.71 14.52C113.518 14.328 113.422 14.0933 113.422 13.816C113.422 13.5387 113.518 13.304 113.71 13.112C113.902 12.92 114.136 12.824 114.414 12.824C114.68 12.824 114.904 12.92 115.086 13.112C115.278 13.304 115.374 13.5387 115.374 13.816C115.374 14.0933 115.278 14.328 115.086 14.52C114.904 14.712 114.68 14.808 114.414 14.808ZM115.118 16.232V25H113.662V16.232H115.118ZM121.423 25.144C120.602 25.144 119.855 24.9573 119.183 24.584C118.522 24.2107 117.999 23.6827 117.615 23C117.242 22.3067 117.055 21.5067 117.055 20.6C117.055 19.704 117.247 18.9147 117.631 18.232C118.026 17.5387 118.559 17.0107 119.231 16.648C119.903 16.2747 120.655 16.088 121.487 16.088C122.319 16.088 123.071 16.2747 123.743 16.648C124.415 17.0107 124.943 17.5333 125.327 18.216C125.722 18.8987 125.919 19.6933 125.919 20.6C125.919 21.5067 125.717 22.3067 125.311 23C124.917 23.6827 124.378 24.2107 123.695 24.584C123.013 24.9573 122.255 25.144 121.423 25.144ZM121.423 23.864C121.946 23.864 122.437 23.7413 122.895 23.496C123.354 23.2507 123.722 22.8827 123.999 22.392C124.287 21.9013 124.431 21.304 124.431 20.6C124.431 19.896 124.293 19.2987 124.015 18.808C123.738 18.3173 123.375 17.9547 122.927 17.72C122.479 17.4747 121.994 17.352 121.471 17.352C120.938 17.352 120.447 17.4747 119.999 17.72C119.562 17.9547 119.21 18.3173 118.943 18.808C118.677 19.2987 118.543 19.896 118.543 20.6C118.543 21.3147 118.671 21.9173 118.927 22.408C119.194 22.8987 119.546 23.2667 119.983 23.512C120.421 23.7467 120.901 23.864 121.423 23.864ZM132.106 16.072C133.172 16.072 134.036 16.3973 134.698 17.048C135.359 17.688 135.69 18.616 135.69 19.832V25H134.25V20.04C134.25 19.1653 134.031 18.4987 133.594 18.04C133.156 17.5707 132.559 17.336 131.802 17.336C131.034 17.336 130.42 17.576 129.962 18.056C129.514 18.536 129.29 19.2347 129.29 20.152V25H127.834V16.232H129.29V17.48C129.578 17.032 129.967 16.6853 130.458 16.44C130.959 16.1947 131.508 16.072 132.106 16.072Z" fill="#DFDFDF"/>
</svg>
