<svg width="504" height="252" viewBox="0 0 504 252" fill="none" xmlns="http://www.w3.org/2000/svg">
<path d="M253.63 97.3451C338.128 98.3509 406.297 163.028 406.297 242.666C406.297 245.802 406.192 248.914 405.983 252H390.938C391.174 248.915 391.297 245.802 391.297 242.666C391.297 171.551 329.66 112.334 251.631 112.333C173.602 112.334 111.964 171.551 111.964 242.666C111.964 245.802 112.086 248.915 112.322 252H97.2783C97.0701 248.914 96.9639 245.802 96.9639 242.666C96.9641 162.401 166.211 97.3335 251.631 97.3334L253.63 97.3451Z" fill="url(#paint0_linear_4895_1522)"/>
<path d="M251.599 42.6666C367.211 42.6668 460.933 130.733 460.933 239.368L460.928 240.64C460.903 244.453 460.761 248.241 460.508 252H445.468C445.776 247.824 445.933 243.612 445.933 239.368C445.933 139.883 359.82 57.6668 251.599 57.6666C143.379 57.6668 57.2664 139.883 57.2664 239.368C57.2664 243.612 57.4228 247.824 57.7312 252H42.6902C42.4367 248.241 42.296 244.453 42.2703 240.64L42.2664 239.368C42.2664 130.733 135.988 42.6668 251.599 42.6666Z" fill="url(#paint1_linear_4895_1522)"/>
<path d="M252 0C391.176 0.000122449 504 106.016 504 236.793C504 241.901 503.827 246.972 503.488 252H488.447C488.813 246.973 489 241.902 489 236.793C489 115.166 383.785 15.0001 252 15C120.215 15 15.0001 115.166 15 236.793C15 241.902 15.1863 246.973 15.5518 252H0.510742C0.171595 246.972 0 241.901 0 236.793C7.89872e-05 106.016 112.824 3.87549e-05 252 0Z" fill="url(#paint2_linear_4895_1522)"/>
<defs>
<linearGradient id="paint0_linear_4895_1522" x1="251.63" y1="97.3334" x2="251.63" y2="252" gradientUnits="userSpaceOnUse">
<stop stop-color="#202020"/>
<stop offset="1" stop-color="#868686"/>
</linearGradient>
<linearGradient id="paint1_linear_4895_1522" x1="251.6" y1="42.6666" x2="251.6" y2="252" gradientUnits="userSpaceOnUse">
<stop stop-color="#202020"/>
<stop offset="1" stop-color="#868686"/>
</linearGradient>
<linearGradient id="paint2_linear_4895_1522" x1="252" y1="0" x2="252" y2="252" gradientUnits="userSpaceOnUse">
<stop stop-color="#202020"/>
<stop offset="1" stop-color="#868686"/>
</linearGradient>
</defs>
</svg>
