<svg width="63" height="64" viewBox="0 0 63 64" fill="none" xmlns="http://www.w3.org/2000/svg">
<circle cx="31.3892" cy="31.7224" r="26.6667" transform="rotate(11.3386 31.3892 31.7224)" fill="#050505"/>
<path d="M31.4934 32.4233C33.8399 32.8939 36.1236 31.3731 36.5941 29.0265C37.0647 26.68 35.5439 24.3964 33.1973 23.9258C30.8508 23.4553 28.5671 24.9761 28.0966 27.3226C27.6261 29.6691 29.1469 31.9528 31.4934 32.4233Z" stroke="white" stroke-linecap="round" stroke-linejoin="round"/>
<path d="M37.8687 42.5409C37.663 40.7194 36.8842 39.0103 35.6446 37.6599C34.405 36.3095 32.7686 35.3877 30.9713 35.0273C29.174 34.6669 27.3087 34.8866 25.6442 35.6546C23.9798 36.4227 22.6023 37.6994 21.7103 39.3008L37.8687 42.5409Z" stroke="white" stroke-linecap="round" stroke-linejoin="round"/>
</svg>
