<svg width="62" height="62" viewBox="0 0 62 62" fill="none" xmlns="http://www.w3.org/2000/svg">
<circle cx="30.7223" cy="31.389" r="26.6667" transform="rotate(-8.7778 30.7223 31.389)" fill="#050505"/>
<path d="M31.0613 32.0113C33.4265 31.6461 35.0478 29.4327 34.6826 27.0675C34.3173 24.7023 32.1039 23.081 29.7387 23.4462C27.3735 23.8114 25.7522 26.0248 26.1174 28.39C26.4826 30.7552 28.6961 32.3765 31.0613 32.0113Z" stroke="white" stroke-linecap="round" stroke-linejoin="round"/>
<path d="M40.5273 39.319C39.7077 37.6794 38.3886 36.3424 36.7602 35.5007C35.1318 34.6591 33.2781 34.3563 31.4665 34.636C29.6549 34.9157 27.979 35.7635 26.6802 37.0572C25.3815 38.3508 24.5272 40.0234 24.2403 41.8339L40.5273 39.319Z" stroke="white" stroke-linecap="round" stroke-linejoin="round"/>
</svg>
