<svg width="80" height="81" viewBox="0 0 80 81" fill="none" xmlns="http://www.w3.org/2000/svg">
<circle cx="40" cy="40.3334" r="39.5" fill="#050505" stroke="white"/>
<path d="M43.3333 32.3335C44.129 32.3335 44.892 32.6496 45.4547 33.2122C46.0173 33.7748 46.3333 34.5378 46.3333 35.3335C46.3333 36.1291 46.0173 36.8922 45.4547 37.4548C44.892 38.0174 44.129 38.3335 43.3333 38.3335M45.4667 41.2535C46.6024 41.6856 47.5803 42.4523 48.2707 43.4523C48.9612 44.4523 49.3317 45.6383 49.3333 46.8535V48.3335H47.3333M41 35.3335C41 36.9904 39.6569 38.3335 38 38.3335C36.3431 38.3335 35 36.9904 35 35.3335C35 33.6766 36.3431 32.3335 38 32.3335C39.6569 32.3335 41 33.6766 41 35.3335ZM44 48.3335H32V47.0002C32 45.4089 32.6321 43.8827 33.7574 42.7575C34.8826 41.6323 36.4087 41.0002 38 41.0002C39.5913 41.0002 41.1174 41.6323 42.2426 42.7575C43.3679 43.8827 44 45.4089 44 47.0002V48.3335Z" stroke="white" stroke-linecap="round" stroke-linejoin="round"/>
</svg>
