<svg width="504" height="252" viewBox="0 0 504 252" fill="none" xmlns="http://www.w3.org/2000/svg">
<path d="M253.63 97.3451C338.128 98.3509 406.297 163.028 406.297 242.666C406.297 245.802 406.192 248.914 405.983 252H390.938C391.174 248.915 391.297 245.802 391.297 242.666C391.297 171.551 329.66 112.334 251.631 112.333C173.602 112.334 111.964 171.551 111.964 242.666C111.964 245.802 112.086 248.915 112.322 252H97.2783C97.0701 248.914 96.9639 245.802 96.9639 242.666C96.9641 162.401 166.211 97.3335 251.631 97.3334L253.63 97.3451Z" fill="url(#paint0_linear_4895_1521)"/>
<path d="M251.599 42.6666C367.211 42.6668 460.933 130.733 460.933 239.368L460.928 240.64C460.903 244.453 460.761 248.241 460.508 252H445.468C445.776 247.824 445.933 243.612 445.933 239.368C445.933 139.883 359.82 57.6668 251.599 57.6666C143.379 57.6668 57.2664 139.883 57.2664 239.368C57.2664 243.612 57.4228 247.824 57.7312 252H42.6902C42.4367 248.241 42.296 244.453 42.2703 240.64L42.2664 239.368C42.2664 130.733 135.988 42.6668 251.599 42.6666Z" fill="url(#paint1_linear_4895_1521)"/>
<path d="M252 0C391.176 0.000122449 504 106.016 504 236.793C504 241.901 503.827 246.972 503.488 252H488.447C488.813 246.973 489 241.902 489 236.793C489 115.166 383.785 15.0001 252 15C120.215 15 15.0001 115.166 15 236.793C15 241.902 15.1863 246.973 15.5518 252H0.510742C0.171595 246.972 0 241.901 0 236.793C7.89872e-05 106.016 112.824 3.87549e-05 252 0Z" fill="url(#paint2_linear_4895_1521)"/>
<circle cx="158.667" cy="56" r="26.6667" fill="#050505"/>
<path d="M158.907 56.6668C161.3 56.6668 163.24 54.7267 163.24 52.3335C163.24 49.9402 161.3 48.0001 158.907 48.0001C156.514 48.0001 154.573 49.9402 154.573 52.3335C154.573 54.7267 156.514 56.6668 158.907 56.6668Z" stroke="white" stroke-linecap="round" stroke-linejoin="round"/>
<path d="M167.147 65.3335C166.587 63.5879 165.487 62.0653 164.006 60.985C162.526 59.9047 160.74 59.3226 158.907 59.3226C157.074 59.3226 155.288 59.9047 153.807 60.985C152.326 62.0653 151.227 63.5879 150.667 65.3335H167.147Z" stroke="white" stroke-linecap="round" stroke-linejoin="round"/>
<circle cx="415.389" cy="44.7224" r="26.6667" transform="rotate(11.3386 415.389 44.7224)" fill="#050505"/>
<path d="M415.493 45.4233C417.84 45.8939 420.124 44.3731 420.594 42.0265C421.065 39.68 419.544 37.3964 417.197 36.9258C414.851 36.4553 412.567 37.9761 412.097 40.3226C411.626 42.6691 413.147 44.9528 415.493 45.4233Z" stroke="white" stroke-linecap="round" stroke-linejoin="round"/>
<path d="M421.869 55.5409C421.663 53.7194 420.884 52.0103 419.645 50.6599C418.405 49.3095 416.769 48.3877 414.971 48.0273C413.174 47.6669 411.309 47.8866 409.644 48.6546C407.98 49.4227 406.602 50.6994 405.71 52.3008L421.869 55.5409Z" stroke="white" stroke-linecap="round" stroke-linejoin="round"/>
<circle cx="430.056" cy="182.056" r="26.6667" transform="rotate(11.3386 430.056 182.056)" fill="#050505"/>
<path d="M430.16 182.756C432.506 183.227 434.79 181.706 435.261 179.36C435.731 177.013 434.21 174.729 431.864 174.259C429.517 173.788 427.234 175.309 426.763 177.656C426.293 180.002 427.813 182.286 430.16 182.756Z" stroke="white" stroke-linecap="round" stroke-linejoin="round"/>
<path d="M436.535 192.874C436.33 191.053 435.551 189.343 434.311 187.993C433.071 186.643 431.435 185.721 429.638 185.36C427.84 185 425.975 185.22 424.311 185.988C422.646 186.756 421.269 188.033 420.377 189.634L436.535 192.874Z" stroke="white" stroke-linecap="round" stroke-linejoin="round"/>
<circle cx="44.7223" cy="179.389" r="26.6667" transform="rotate(-8.7778 44.7223 179.389)" fill="#050505"/>
<path d="M45.0613 180.011C47.4265 179.646 49.0478 177.433 48.6826 175.067C48.3173 172.702 46.1039 171.081 43.7387 171.446C41.3735 171.811 39.7522 174.025 40.1174 176.39C40.4826 178.755 42.6961 180.377 45.0613 180.011Z" stroke="white" stroke-linecap="round" stroke-linejoin="round"/>
<path d="M54.5273 187.319C53.7077 185.679 52.3886 184.342 50.7602 183.501C49.1318 182.659 47.2781 182.356 45.4665 182.636C43.6549 182.916 41.979 183.764 40.6802 185.057C39.3815 186.351 38.5272 188.023 38.2403 189.834L54.5273 187.319Z" stroke="white" stroke-linecap="round" stroke-linejoin="round"/>
<circle cx="240" cy="193.333" r="39.5" fill="#050505" stroke="white"/>
<path d="M243.333 185.333C244.129 185.333 244.892 185.65 245.455 186.212C246.017 186.775 246.333 187.538 246.333 188.333C246.333 189.129 246.017 189.892 245.455 190.455C244.892 191.017 244.129 191.333 243.333 191.333M245.467 194.253C246.602 194.686 247.58 195.452 248.271 196.452C248.961 197.452 249.332 198.638 249.333 199.853V201.333H247.333M241 188.333C241 189.99 239.657 191.333 238 191.333C236.343 191.333 235 189.99 235 188.333C235 186.677 236.343 185.333 238 185.333C239.657 185.333 241 186.677 241 188.333ZM244 201.333H232V200C232 198.409 232.632 196.883 233.757 195.758C234.883 194.632 236.409 194 238 194C239.591 194 241.117 194.632 242.243 195.758C243.368 196.883 244 198.409 244 200V201.333Z" stroke="white" stroke-linecap="round" stroke-linejoin="round"/>
<defs>
<linearGradient id="paint0_linear_4895_1521" x1="251.63" y1="97.3334" x2="251.63" y2="252" gradientUnits="userSpaceOnUse">
<stop stop-color="#202020"/>
<stop offset="1" stop-color="#868686"/>
</linearGradient>
<linearGradient id="paint1_linear_4895_1521" x1="251.6" y1="42.6666" x2="251.6" y2="252" gradientUnits="userSpaceOnUse">
<stop stop-color="#202020"/>
<stop offset="1" stop-color="#868686"/>
</linearGradient>
<linearGradient id="paint2_linear_4895_1521" x1="252" y1="0" x2="252" y2="252" gradientUnits="userSpaceOnUse">
<stop stop-color="#202020"/>
<stop offset="1" stop-color="#868686"/>
</linearGradient>
</defs>
</svg>
