<svg width="324" height="205" viewBox="0 0 324 205" fill="none" xmlns="http://www.w3.org/2000/svg">
<rect x="0.804688" y="0.879272" width="323.19" height="203.282" rx="20" fill="white" fill-opacity="0.13"/>
<rect width="26.2299" height="26.2299" rx="13.1149" transform="matrix(0 1 1 0 259.356 154.511)" fill="url(#paint0_linear_4895_1577)" fill-opacity="0.5"/>
<rect x="0.25" y="0.25" width="25.7299" height="25.7299" rx="12.8649" transform="matrix(0 1 1 0 259.356 154.511)" stroke="url(#paint1_linear_4895_1577)" stroke-opacity="0.8" stroke-width="0.5"/>
<rect width="26.2299" height="24.3563" rx="12.1782" transform="matrix(0 1 1 0 277.155 154.511)" fill="url(#paint2_linear_4895_1577)" fill-opacity="0.5"/>
<rect x="0.25" y="0.25" width="25.7299" height="23.8563" rx="11.9282" transform="matrix(0 1 1 0 277.155 154.511)" stroke="url(#paint3_linear_4895_1577)" stroke-opacity="0.8" stroke-width="0.5"/>
<path d="M17.0591 22.2441C17.4805 22.775 17.7965 23.412 18.0071 24.049C18.2178 24.686 18.3231 25.4292 18.3231 26.1724C18.3231 26.9155 18.2178 27.6587 18.0071 28.2957C17.7965 28.9327 17.4805 29.5698 17.0591 30.1006C16.5325 30.8438 16.6378 31.9055 17.3751 32.4363C18.1125 32.9671 19.1658 32.861 19.6925 32.1178C20.3245 31.2685 20.7458 30.4191 21.1671 29.3574C21.5885 28.2957 21.6938 27.234 21.6938 26.1724C21.6938 25.1107 21.4831 24.049 21.1671 22.9873C20.8511 22.0318 20.3245 21.0763 19.6925 20.2269C19.1658 19.4837 18.1125 19.3776 17.3751 19.9084C16.6378 20.4393 16.5325 21.5009 17.0591 22.2441Z" fill="white"/>
<path d="M22.8525 19.1652C24.1165 21.1824 24.8538 23.6243 24.8538 26.1724C24.8538 28.7204 24.1165 31.1623 22.8525 33.1795C22.3258 33.9227 22.6418 34.9843 23.3791 35.5152C24.2218 36.046 25.1698 35.7275 25.6965 34.9843C27.2765 32.4363 28.2245 29.4636 28.2245 26.1724C28.2245 22.9873 27.2765 19.9084 25.6965 17.3604C25.1698 16.6172 24.1165 16.2987 23.3791 16.8295C22.6418 17.3604 22.3258 18.3159 22.8525 19.1652Z" fill="white"/>
<path d="M28.9618 15.9802C30.7525 18.9529 31.7005 22.4565 31.7005 26.1724C31.7005 29.8883 30.6471 33.3918 28.9618 36.3645C28.5405 37.2139 28.7511 38.1694 29.5938 38.7002C30.4365 39.1249 31.3845 38.9126 31.9111 38.0632C34.0178 34.5597 35.1765 30.5253 35.1765 26.1724C35.1765 21.8194 34.0178 17.785 31.9111 14.2815C31.4898 13.4321 30.4365 13.2198 29.5938 13.6445C28.7511 14.1753 28.5405 15.1308 28.9618 15.9802Z" fill="white"/>
<path d="M35.0711 12.7951C37.2831 16.7234 38.6524 21.2886 38.6524 26.1724C38.6524 31.0561 37.3884 35.6214 35.0711 39.5496C34.6498 40.3989 34.8604 41.3545 35.7031 41.8853C36.5458 42.31 37.4938 42.0976 38.0204 41.2483C40.5484 36.7892 42.0231 31.6931 42.0231 26.1724C42.0231 20.6516 40.5484 15.5555 38.0204 11.0964C37.5991 10.2471 36.5458 10.0347 35.7031 10.4594C34.8604 10.8841 34.6498 11.9458 35.0711 12.7951Z" fill="white"/>
<path d="M19.821 172.129L15.6444 176.306C14.5397 177.415 13.9194 178.917 13.9194 180.482C13.9194 182.048 14.5397 183.55 15.6444 184.659C16.7537 185.764 18.2555 186.384 19.821 186.384C21.3865 186.384 22.8883 185.764 23.9976 184.659L26.4767 182.18" fill="white"/>
<path d="M32.9091 177.423H37.0633C38.6271 177.423 40.1269 176.802 41.2327 175.696C42.3384 174.59 42.9596 173.09 42.9596 171.526C42.9596 169.963 42.3384 168.463 41.2327 167.357C40.1269 166.251 38.6271 165.63 37.0633 165.63H31.167" fill="white"/>
<defs>
<linearGradient id="paint0_linear_4895_1577" x1="13.1149" y1="0" x2="13.1149" y2="26.2299" gradientUnits="userSpaceOnUse">
<stop stop-color="white"/>
<stop offset="1" stop-color="white" stop-opacity="0"/>
</linearGradient>
<linearGradient id="paint1_linear_4895_1577" x1="13.1149" y1="0" x2="13.1149" y2="26.2299" gradientUnits="userSpaceOnUse">
<stop stop-color="white"/>
<stop offset="0.232946" stop-color="white" stop-opacity="0"/>
<stop offset="0.770414" stop-color="white" stop-opacity="0"/>
<stop offset="1" stop-color="white"/>
</linearGradient>
<linearGradient id="paint2_linear_4895_1577" x1="13.1149" y1="0" x2="13.1149" y2="24.3563" gradientUnits="userSpaceOnUse">
<stop stop-color="white"/>
<stop offset="1" stop-color="white" stop-opacity="0"/>
</linearGradient>
<linearGradient id="paint3_linear_4895_1577" x1="13.1149" y1="0" x2="13.1149" y2="24.3563" gradientUnits="userSpaceOnUse">
<stop stop-color="white"/>
<stop offset="0.232946" stop-color="white" stop-opacity="0"/>
<stop offset="0.770414" stop-color="white" stop-opacity="0"/>
<stop offset="1" stop-color="white"/>
</linearGradient>
</defs>
</svg>
