<svg width="324" height="204" viewBox="0 0 324 204" fill="none" xmlns="http://www.w3.org/2000/svg">
<rect x="0.810547" y="0.724121" width="323.19" height="203.282" rx="20" fill="white" fill-opacity="0.13"/>
<rect width="26.2299" height="26.2299" rx="13.1149" transform="matrix(0 1 1 0 259.362 154.356)" fill="url(#paint0_linear_4895_1588)" fill-opacity="0.5"/>
<rect x="0.25" y="0.25" width="25.7299" height="25.7299" rx="12.8649" transform="matrix(0 1 1 0 259.362 154.356)" stroke="url(#paint1_linear_4895_1588)" stroke-opacity="0.8" stroke-width="0.5"/>
<rect width="26.2299" height="24.3563" rx="12.1782" transform="matrix(0 1 1 0 277.161 154.356)" fill="url(#paint2_linear_4895_1588)" fill-opacity="0.5"/>
<rect x="0.25" y="0.25" width="25.7299" height="23.8563" rx="11.9282" transform="matrix(0 1 1 0 277.161 154.356)" stroke="url(#paint3_linear_4895_1588)" stroke-opacity="0.8" stroke-width="0.5"/>
<path d="M17.065 22.089C17.4863 22.6198 17.8023 23.2568 18.013 23.8938C18.2237 24.5308 18.329 25.274 18.329 26.0172C18.329 26.7604 18.2237 27.5036 18.013 28.1406C17.8023 28.7776 17.4863 29.4146 17.065 29.9454C16.5383 30.6886 16.6437 31.7503 17.381 32.2812C18.1183 32.812 19.1717 32.7058 19.6983 31.9626C20.3303 31.1133 20.7517 30.264 21.173 29.2023C21.5943 28.1406 21.6997 27.0789 21.6997 26.0172C21.6997 24.9555 21.489 23.8938 21.173 22.8322C20.857 21.8766 20.3303 20.9211 19.6983 20.0718C19.1717 19.3286 18.1183 19.2224 17.381 19.7533C16.6437 20.2841 16.5383 21.3458 17.065 22.089Z" fill="white"/>
<path d="M22.8583 19.0101C24.1223 21.0273 24.8597 23.4692 24.8597 26.0172C24.8597 28.5652 24.1223 31.0071 22.8583 33.0243C22.3317 33.7675 22.6477 34.8292 23.385 35.36C24.2277 35.8909 25.1757 35.5724 25.7023 34.8292C27.2823 32.2811 28.2303 29.3084 28.2303 26.0172C28.2303 22.8321 27.2823 19.7533 25.7023 17.2052C25.1757 16.462 24.1223 16.1435 23.385 16.6744C22.6477 17.2052 22.3317 18.1607 22.8583 19.0101Z" fill="white"/>
<path d="M28.9677 15.825C30.7583 18.7977 31.7063 22.3013 31.7063 26.0172C31.7063 29.7331 30.653 33.2367 28.9677 36.2094C28.5463 37.0587 28.757 38.0143 29.5997 38.5451C30.4423 38.9698 31.3903 38.7574 31.917 37.9081C34.0237 34.4045 35.1823 30.3701 35.1823 26.0172C35.1823 21.6643 34.0237 17.6299 31.917 14.1263C31.4957 13.277 30.4423 13.0646 29.5997 13.4893C28.757 14.0202 28.5463 14.9757 28.9677 15.825Z" fill="white"/>
<path d="M35.0769 12.64C37.2889 16.5682 38.6583 21.1335 38.6583 26.0172C38.6583 30.901 37.3943 35.4662 35.0769 39.3944C34.6556 40.2438 34.8663 41.1993 35.7089 41.7302C36.5516 42.1548 37.4996 41.9425 38.0263 41.0931C40.5543 36.6341 42.0289 31.538 42.0289 26.0172C42.0289 20.4964 40.5543 15.4003 38.0263 10.9413C37.6049 10.0919 36.5516 9.87958 35.7089 10.3043C34.8663 10.7289 34.6556 11.7906 35.0769 12.64Z" fill="white"/>
<path d="M19.8269 171.974L15.6503 176.15C14.5455 177.26 13.9253 178.761 13.9253 180.327C13.9253 181.893 14.5455 183.394 15.6503 184.504C16.7595 185.608 18.2613 186.229 19.8269 186.229C21.3924 186.229 22.8942 185.608 24.0034 184.504L26.4826 182.024" fill="white"/>
<path d="M32.9149 177.268H37.0692C38.633 177.268 40.1327 176.646 41.2385 175.541C42.3443 174.435 42.9655 172.935 42.9655 171.371C42.9655 169.808 42.3443 168.308 41.2385 167.202C40.1327 166.096 38.633 165.475 37.0692 165.475H31.1729" fill="white"/>
<defs>
<linearGradient id="paint0_linear_4895_1588" x1="13.1149" y1="0" x2="13.1149" y2="26.2299" gradientUnits="userSpaceOnUse">
<stop stop-color="white"/>
<stop offset="1" stop-color="white" stop-opacity="0"/>
</linearGradient>
<linearGradient id="paint1_linear_4895_1588" x1="13.1149" y1="0" x2="13.1149" y2="26.2299" gradientUnits="userSpaceOnUse">
<stop stop-color="white"/>
<stop offset="0.232946" stop-color="white" stop-opacity="0"/>
<stop offset="0.770414" stop-color="white" stop-opacity="0"/>
<stop offset="1" stop-color="white"/>
</linearGradient>
<linearGradient id="paint2_linear_4895_1588" x1="13.1149" y1="0" x2="13.1149" y2="24.3563" gradientUnits="userSpaceOnUse">
<stop stop-color="white"/>
<stop offset="1" stop-color="white" stop-opacity="0"/>
</linearGradient>
<linearGradient id="paint3_linear_4895_1588" x1="13.1149" y1="0" x2="13.1149" y2="24.3563" gradientUnits="userSpaceOnUse">
<stop stop-color="white"/>
<stop offset="0.232946" stop-color="white" stop-opacity="0"/>
<stop offset="0.770414" stop-color="white" stop-opacity="0"/>
<stop offset="1" stop-color="white"/>
</linearGradient>
</defs>
</svg>
