<svg width="324" height="204" viewBox="0 0 324 204" fill="none" xmlns="http://www.w3.org/2000/svg">
<path d="M0 20.7184C0 9.67268 8.95431 0.718384 20 0.718384H303.19C314.235 0.718384 323.19 9.67269 323.19 20.7184V204H0V20.7184Z" fill="white" fill-opacity="0.13"/>
<rect width="26.2299" height="26.2299" rx="13.1149" transform="matrix(0 1 1 0 258.552 154.351)" fill="url(#paint0_linear_4895_1566)" fill-opacity="0.5"/>
<rect x="0.25" y="0.25" width="25.7299" height="25.7299" rx="12.8649" transform="matrix(0 1 1 0 258.552 154.351)" stroke="url(#paint1_linear_4895_1566)" stroke-opacity="0.8" stroke-width="0.5"/>
<rect width="26.2299" height="24.3563" rx="12.1782" transform="matrix(0 1 1 0 276.351 154.351)" fill="url(#paint2_linear_4895_1566)" fill-opacity="0.5"/>
<rect x="0.25" y="0.25" width="25.7299" height="23.8563" rx="11.9282" transform="matrix(0 1 1 0 276.351 154.351)" stroke="url(#paint3_linear_4895_1566)" stroke-opacity="0.8" stroke-width="0.5"/>
<path d="M16.2545 22.0832C16.6758 22.6141 16.9918 23.2511 17.2025 23.8881C17.4131 24.5251 17.5185 25.2683 17.5185 26.0115C17.5185 26.7547 17.4131 27.4978 17.2025 28.1348C16.9918 28.7719 16.6758 29.4089 16.2545 29.9397C15.7278 30.6829 15.8331 31.7446 16.5705 32.2754C17.3078 32.8063 18.3611 32.7001 18.8878 31.9569C19.5198 31.1076 19.9411 30.2582 20.3625 29.1965C20.7838 28.1348 20.8891 27.0732 20.8891 26.0115C20.8891 24.9498 20.6785 23.8881 20.3625 22.8264C20.0465 21.8709 19.5198 20.9154 18.8878 20.066C18.3611 19.3229 17.3078 19.2167 16.5705 19.7475C15.8331 20.2784 15.7278 21.3401 16.2545 22.0832Z" fill="white"/>
<path d="M22.0478 19.0043C23.3118 21.0215 24.0491 23.4634 24.0491 26.0115C24.0491 28.5595 23.3118 31.0014 22.0478 33.0186C21.5211 33.7618 21.8371 34.8235 22.5745 35.3543C23.4171 35.8851 24.3651 35.5666 24.8918 34.8235C26.4718 32.2754 27.4198 29.3027 27.4198 26.0115C27.4198 22.8264 26.4718 19.7475 24.8918 17.1995C24.3651 16.4563 23.3118 16.1378 22.5745 16.6686C21.8371 17.1995 21.5211 18.155 22.0478 19.0043Z" fill="white"/>
<path d="M28.1571 15.8193C29.9478 18.792 30.8958 22.2956 30.8958 26.0115C30.8958 29.7274 29.8424 33.2309 28.1571 36.2037C27.7358 37.053 27.9464 38.0085 28.7891 38.5394C29.6318 38.964 30.5798 38.7517 31.1064 37.9023C33.2131 34.3988 34.3718 30.3644 34.3718 26.0115C34.3718 21.6586 33.2131 17.6242 31.1064 14.1206C30.6851 13.2712 29.6318 13.0589 28.7891 13.4836C27.9464 14.0144 27.7358 14.9699 28.1571 15.8193Z" fill="white"/>
<path d="M34.2664 12.6342C36.4784 16.5625 37.8477 21.1277 37.8477 26.0115C37.8477 30.8952 36.5837 35.4605 34.2664 39.3887C33.8451 40.2381 34.0557 41.1936 34.8984 41.7244C35.7411 42.1491 36.6891 41.9368 37.2157 41.0874C39.7437 36.6283 41.2184 31.5322 41.2184 26.0115C41.2184 20.4907 39.7437 15.3946 37.2157 10.9355C36.7944 10.0862 35.7411 9.87384 34.8984 10.2985C34.0557 10.7232 33.8451 11.7849 34.2664 12.6342Z" fill="white"/>
<path d="M19.0163 171.968L14.8397 176.145C13.735 177.254 13.1147 178.756 13.1147 180.321C13.1147 181.887 13.735 183.389 14.8397 184.498C15.949 185.603 17.4508 186.223 19.0163 186.223C20.5818 186.223 22.0836 185.603 23.1929 184.498L25.672 182.019" fill="white"/>
<path d="M32.1049 177.262H36.2591C37.8229 177.262 39.3227 176.641 40.4285 175.535C41.5342 174.429 42.1554 172.929 42.1554 171.366C42.1554 169.802 41.5342 168.302 40.4285 167.196C39.3227 166.09 37.8229 165.469 36.2591 165.469H30.3628" fill="white"/>
<defs>
<linearGradient id="paint0_linear_4895_1566" x1="13.1149" y1="0" x2="13.1149" y2="26.2299" gradientUnits="userSpaceOnUse">
<stop stop-color="white"/>
<stop offset="1" stop-color="white" stop-opacity="0"/>
</linearGradient>
<linearGradient id="paint1_linear_4895_1566" x1="13.1149" y1="0" x2="13.1149" y2="26.2299" gradientUnits="userSpaceOnUse">
<stop stop-color="white"/>
<stop offset="0.232946" stop-color="white" stop-opacity="0"/>
<stop offset="0.770414" stop-color="white" stop-opacity="0"/>
<stop offset="1" stop-color="white"/>
</linearGradient>
<linearGradient id="paint2_linear_4895_1566" x1="13.1149" y1="0" x2="13.1149" y2="24.3563" gradientUnits="userSpaceOnUse">
<stop stop-color="white"/>
<stop offset="1" stop-color="white" stop-opacity="0"/>
</linearGradient>
<linearGradient id="paint3_linear_4895_1566" x1="13.1149" y1="0" x2="13.1149" y2="24.3563" gradientUnits="userSpaceOnUse">
<stop stop-color="white"/>
<stop offset="0.232946" stop-color="white" stop-opacity="0"/>
<stop offset="0.770414" stop-color="white" stop-opacity="0"/>
<stop offset="1" stop-color="white"/>
</linearGradient>
</defs>
</svg>
