<svg width="150" height="61" viewBox="0 0 150 61" fill="none" xmlns="http://www.w3.org/2000/svg">
<path d="M4.80634 21.956C4.97968 22.944 5.37834 23.7067 6.00234 24.244C6.64368 24.7813 7.50168 25.05 8.57634 25.05C10.015 25.05 11.0723 24.4867 11.7483 23.36C12.4417 22.2333 12.771 20.3353 12.7363 17.666C12.3723 18.446 11.7657 19.0613 10.9163 19.512C10.067 19.9453 9.12234 20.162 8.08234 20.162C6.92101 20.162 5.88101 19.928 4.96234 19.46C4.06101 18.9747 3.35034 18.2727 2.83034 17.354C2.31034 16.4353 2.05034 15.326 2.05034 14.026C2.05034 12.1713 2.58768 10.6807 3.66234 9.554C4.73701 8.41 6.26234 7.838 8.23834 7.838C10.665 7.838 12.3637 8.62667 13.3343 10.204C14.3223 11.7813 14.8163 14.13 14.8163 17.25C14.8163 19.434 14.617 21.2367 14.2183 22.658C13.837 24.0793 13.1783 25.1627 12.2423 25.908C11.3237 26.6533 10.0583 27.026 8.44634 27.026C6.67834 27.026 5.30034 26.5493 4.31234 25.596C3.32434 24.6427 2.76101 23.4293 2.62234 21.956H4.80634ZM8.47234 18.16C9.63368 18.16 10.587 17.8047 11.3323 17.094C12.0777 16.366 12.4503 15.3867 12.4503 14.156C12.4503 12.856 12.0863 11.8073 11.3583 11.01C10.6303 10.2127 9.60768 9.814 8.29034 9.814C7.07701 9.814 6.10634 10.1953 5.37834 10.958C4.66768 11.7207 4.31234 12.726 4.31234 13.974C4.31234 15.2393 4.66768 16.2533 5.37834 17.016C6.08901 17.7787 7.12034 18.16 8.47234 18.16ZM21.1833 21.956C21.3566 22.944 21.7553 23.7067 22.3793 24.244C23.0206 24.7813 23.8786 25.05 24.9533 25.05C26.392 25.05 27.4493 24.4867 28.1253 23.36C28.8186 22.2333 29.148 20.3353 29.1133 17.666C28.7493 18.446 28.1426 19.0613 27.2933 19.512C26.444 19.9453 25.4993 20.162 24.4593 20.162C23.298 20.162 22.258 19.928 21.3393 19.46C20.438 18.9747 19.7273 18.2727 19.2073 17.354C18.6873 16.4353 18.4273 15.326 18.4273 14.026C18.4273 12.1713 18.9646 10.6807 20.0393 9.554C21.114 8.41 22.6393 7.838 24.6153 7.838C27.042 7.838 28.7406 8.62667 29.7113 10.204C30.6993 11.7813 31.1933 14.13 31.1933 17.25C31.1933 19.434 30.994 21.2367 30.5953 22.658C30.214 24.0793 29.5553 25.1627 28.6193 25.908C27.7006 26.6533 26.4353 27.026 24.8233 27.026C23.0553 27.026 21.6773 26.5493 20.6893 25.596C19.7013 24.6427 19.138 23.4293 18.9993 21.956H21.1833ZM24.8493 18.16C26.0106 18.16 26.964 17.8047 27.7093 17.094C28.4546 16.366 28.8273 15.3867 28.8273 14.156C28.8273 12.856 28.4633 11.8073 27.7353 11.01C27.0073 10.2127 25.9846 9.814 24.6673 9.814C23.454 9.814 22.4833 10.1953 21.7553 10.958C21.0446 11.7207 20.6893 12.726 20.6893 13.974C20.6893 15.2393 21.0446 16.2533 21.7553 17.016C22.466 17.7787 23.4973 18.16 24.8493 18.16ZM35.6623 27.156C35.2116 27.156 34.8303 27 34.5183 26.688C34.2063 26.376 34.0503 25.9947 34.0503 25.544C34.0503 25.0933 34.2063 24.712 34.5183 24.4C34.8303 24.088 35.2116 23.932 35.6623 23.932C36.0956 23.932 36.4596 24.088 36.7543 24.4C37.0663 24.712 37.2223 25.0933 37.2223 25.544C37.2223 25.9947 37.0663 26.376 36.7543 26.688C36.4596 27 36.0956 27.156 35.6623 27.156ZM43.0192 21.956C43.1926 22.944 43.5912 23.7067 44.2152 24.244C44.8566 24.7813 45.7146 25.05 46.7892 25.05C48.2279 25.05 49.2852 24.4867 49.9612 23.36C50.6546 22.2333 50.9839 20.3353 50.9492 17.666C50.5852 18.446 49.9786 19.0613 49.1292 19.512C48.2799 19.9453 47.3352 20.162 46.2952 20.162C45.1339 20.162 44.0939 19.928 43.1752 19.46C42.2739 18.9747 41.5632 18.2727 41.0432 17.354C40.5232 16.4353 40.2632 15.326 40.2632 14.026C40.2632 12.1713 40.8006 10.6807 41.8752 9.554C42.9499 8.41 44.4752 7.838 46.4512 7.838C48.8779 7.838 50.5766 8.62667 51.5472 10.204C52.5352 11.7813 53.0292 14.13 53.0292 17.25C53.0292 19.434 52.8299 21.2367 52.4312 22.658C52.0499 24.0793 51.3912 25.1627 50.4552 25.908C49.5366 26.6533 48.2712 27.026 46.6592 27.026C44.8912 27.026 43.5132 26.5493 42.5252 25.596C41.5372 24.6427 40.9739 23.4293 40.8352 21.956H43.0192ZM46.6852 18.16C47.8466 18.16 48.7999 17.8047 49.5452 17.094C50.2906 16.366 50.6632 15.3867 50.6632 14.156C50.6632 12.856 50.2992 11.8073 49.5712 11.01C48.8432 10.2127 47.8206 9.814 46.5032 9.814C45.2899 9.814 44.3192 10.1953 43.5912 10.958C42.8806 11.7207 42.5252 12.726 42.5252 13.974C42.5252 15.2393 42.8806 16.2533 43.5912 17.016C44.3019 17.7787 45.3332 18.16 46.6852 18.16ZM59.3962 21.956C59.5695 22.944 59.9682 23.7067 60.5922 24.244C61.2335 24.7813 62.0915 25.05 63.1662 25.05C64.6049 25.05 65.6622 24.4867 66.3382 23.36C67.0315 22.2333 67.3609 20.3353 67.3262 17.666C66.9622 18.446 66.3555 19.0613 65.5062 19.512C64.6569 19.9453 63.7122 20.162 62.6722 20.162C61.5109 20.162 60.4709 19.928 59.5522 19.46C58.6509 18.9747 57.9402 18.2727 57.4202 17.354C56.9002 16.4353 56.6402 15.326 56.6402 14.026C56.6402 12.1713 57.1775 10.6807 58.2522 9.554C59.3269 8.41 60.8522 7.838 62.8282 7.838C65.2549 7.838 66.9535 8.62667 67.9242 10.204C68.9122 11.7813 69.4062 14.13 69.4062 17.25C69.4062 19.434 69.2069 21.2367 68.8082 22.658C68.4269 24.0793 67.7682 25.1627 66.8322 25.908C65.9135 26.6533 64.6482 27.026 63.0362 27.026C61.2682 27.026 59.8902 26.5493 58.9022 25.596C57.9142 24.6427 57.3509 23.4293 57.2122 21.956H59.3962ZM63.0622 18.16C64.2235 18.16 65.1769 17.8047 65.9222 17.094C66.6675 16.366 67.0402 15.3867 67.0402 14.156C67.0402 12.856 66.6762 11.8073 65.9482 11.01C65.2202 10.2127 64.1975 9.814 62.8802 9.814C61.6669 9.814 60.6962 10.1953 59.9682 10.958C59.2575 11.7207 58.9022 12.726 58.9022 13.974C58.9022 15.2393 59.2575 16.2533 59.9682 17.016C60.6789 17.7787 61.7102 18.16 63.0622 18.16ZM72.2111 12.44C72.2111 11.2613 72.5665 10.3253 73.2771 9.632C73.9878 8.92133 74.8978 8.566 76.0071 8.566C77.1165 8.566 78.0265 8.92133 78.7371 9.632C79.4478 10.3253 79.8031 11.2613 79.8031 12.44C79.8031 13.636 79.4478 14.5893 78.7371 15.3C78.0265 15.9933 77.1165 16.34 76.0071 16.34C74.8978 16.34 73.9878 15.9933 73.2771 15.3C72.5665 14.5893 72.2111 13.636 72.2111 12.44ZM87.3951 8.852L76.8651 27H74.5251L85.0551 8.852H87.3951ZM76.0071 10.022C75.4178 10.022 74.9498 10.23 74.6031 10.646C74.2738 11.0447 74.1091 11.6427 74.1091 12.44C74.1091 13.2373 74.2738 13.844 74.6031 14.26C74.9498 14.676 75.4178 14.884 76.0071 14.884C76.5965 14.884 77.0645 14.676 77.4111 14.26C77.7578 13.8267 77.9311 13.22 77.9311 12.44C77.9311 11.6427 77.7578 11.0447 77.4111 10.646C77.0645 10.23 76.5965 10.022 76.0071 10.022ZM82.1691 23.412C82.1691 22.216 82.5245 21.2713 83.2351 20.578C83.9458 19.8673 84.8558 19.512 85.9651 19.512C87.0745 19.512 87.9758 19.8673 88.6691 20.578C89.3798 21.2713 89.7351 22.216 89.7351 23.412C89.7351 24.5907 89.3798 25.5353 88.6691 26.246C87.9758 26.9567 87.0745 27.312 85.9651 27.312C84.8558 27.312 83.9458 26.9653 83.2351 26.272C82.5245 25.5613 82.1691 24.608 82.1691 23.412ZM85.9391 20.994C85.3498 20.994 84.8818 21.202 84.5351 21.618C84.1885 22.0167 84.0151 22.6147 84.0151 23.412C84.0151 24.192 84.1885 24.79 84.5351 25.206C84.8818 25.6047 85.3498 25.804 85.9391 25.804C86.5285 25.804 86.9965 25.6047 87.3431 25.206C87.6898 24.79 87.8631 24.192 87.8631 23.412C87.8631 22.6147 87.6898 22.0167 87.3431 21.618C86.9965 21.202 86.5285 20.994 85.9391 20.994Z" fill="white"/>
<path d="M4.86956 56.112C4.13356 56.112 3.47223 55.984 2.88556 55.728C2.30956 55.4613 1.85623 55.0987 1.52556 54.64C1.1949 54.1707 1.02423 53.632 1.01356 53.024H2.56556C2.6189 53.5467 2.83223 53.9893 3.20556 54.352C3.58956 54.704 4.14423 54.88 4.86956 54.88C5.5629 54.88 6.1069 54.7093 6.50156 54.368C6.9069 54.016 7.10956 53.568 7.10956 53.024C7.10956 52.5973 6.99223 52.2507 6.75756 51.984C6.5229 51.7173 6.22956 51.5147 5.87756 51.376C5.52556 51.2373 5.0509 51.088 4.45356 50.928C3.71756 50.736 3.12556 50.544 2.67756 50.352C2.24023 50.16 1.86156 49.8613 1.54156 49.456C1.23223 49.04 1.07756 48.4853 1.07756 47.792C1.07756 47.184 1.23223 46.6453 1.54156 46.176C1.8509 45.7067 2.2829 45.344 2.83756 45.088C3.4029 44.832 4.04823 44.704 4.77356 44.704C5.8189 44.704 6.67223 44.9653 7.33356 45.488C8.00556 46.0107 8.38423 46.704 8.46956 47.568H6.86956C6.81623 47.1413 6.59223 46.768 6.19756 46.448C5.8029 46.1173 5.28023 45.952 4.62956 45.952C4.02156 45.952 3.52556 46.112 3.14156 46.432C2.75756 46.7413 2.56556 47.1787 2.56556 47.744C2.56556 48.1493 2.67756 48.48 2.90156 48.736C3.13623 48.992 3.4189 49.1893 3.74956 49.328C4.0909 49.456 4.56556 49.6053 5.17356 49.776C5.90956 49.9787 6.50156 50.1813 6.94956 50.384C7.39756 50.576 7.78156 50.88 8.10156 51.296C8.42156 51.7013 8.58156 52.256 8.58156 52.96C8.58156 53.504 8.43756 54.016 8.14956 54.496C7.86156 54.976 7.4349 55.3653 6.86956 55.664C6.30423 55.9627 5.63756 56.112 4.86956 56.112ZM12.1802 54.816H16.0842V56H10.7242V44.848H12.1802V54.816ZM24.2224 53.52H19.3584L18.4624 56H16.9264L20.9584 44.912H22.6384L26.6544 56H25.1184L24.2224 53.52ZM23.8064 52.336L21.7904 46.704L19.7744 52.336H23.8064ZM40.4533 47.232V56H38.9973V54.704C38.72 55.152 38.3306 55.504 37.8293 55.76C37.3386 56.0053 36.7946 56.128 36.1973 56.128C35.5146 56.128 34.9013 55.9893 34.3573 55.712C33.8133 55.424 33.3813 54.9973 33.0613 54.432C32.752 53.8667 32.5973 53.1787 32.5973 52.368V47.232H34.0373V52.176C34.0373 53.04 34.256 53.7067 34.6933 54.176C35.1306 54.6347 35.728 54.864 36.4853 54.864C37.264 54.864 37.8773 54.624 38.3253 54.144C38.7733 53.664 38.9973 52.9653 38.9973 52.048V47.232H40.4533ZM44.3677 48.848C44.6557 48.3467 45.0824 47.9307 45.6477 47.6C46.2237 47.2587 46.8904 47.088 47.6477 47.088C48.4264 47.088 49.1304 47.2747 49.7597 47.648C50.3997 48.0213 50.901 48.5493 51.2637 49.232C51.6264 49.904 51.8077 50.688 51.8077 51.584C51.8077 52.4693 51.6264 53.2587 51.2637 53.952C50.901 54.6453 50.3997 55.184 49.7597 55.568C49.1304 55.952 48.4264 56.144 47.6477 56.144C46.901 56.144 46.2397 55.9787 45.6637 55.648C45.0984 55.3067 44.6664 54.8853 44.3677 54.384V60.16H42.9117V47.232H44.3677V48.848ZM50.3197 51.584C50.3197 50.9227 50.1864 50.3467 49.9197 49.856C49.653 49.3653 49.2904 48.992 48.8317 48.736C48.3837 48.48 47.8877 48.352 47.3437 48.352C46.8104 48.352 46.3144 48.4853 45.8557 48.752C45.4077 49.008 45.045 49.3867 44.7677 49.888C44.501 50.3787 44.3677 50.9493 44.3677 51.6C44.3677 52.2613 44.501 52.8427 44.7677 53.344C45.045 53.8347 45.4077 54.2133 45.8557 54.48C46.3144 54.736 46.8104 54.864 47.3437 54.864C47.8877 54.864 48.3837 54.736 48.8317 54.48C49.2904 54.2133 49.653 53.8347 49.9197 53.344C50.1864 52.8427 50.3197 52.256 50.3197 51.584ZM55.5002 48.432V53.6C55.5002 54.0267 55.5909 54.3307 55.7722 54.512C55.9535 54.6827 56.2682 54.768 56.7162 54.768H57.7882V56H56.4762C55.6655 56 55.0575 55.8133 54.6522 55.44C54.2469 55.0667 54.0442 54.4533 54.0442 53.6V48.432H52.9082V47.232H54.0442V45.024H55.5002V47.232H57.7882V48.432H55.5002ZM60.3043 45.808C60.027 45.808 59.7923 45.712 59.6003 45.52C59.4083 45.328 59.3123 45.0933 59.3123 44.816C59.3123 44.5387 59.4083 44.304 59.6003 44.112C59.7923 43.92 60.027 43.824 60.3043 43.824C60.571 43.824 60.795 43.92 60.9763 44.112C61.1683 44.304 61.2643 44.5387 61.2643 44.816C61.2643 45.0933 61.1683 45.328 60.9763 45.52C60.795 45.712 60.571 45.808 60.3043 45.808ZM61.0083 47.232V56H59.5523V47.232H61.0083ZM74.0338 47.072C74.7165 47.072 75.3245 47.216 75.8578 47.504C76.3911 47.7813 76.8125 48.2027 77.1218 48.768C77.4311 49.3333 77.5858 50.0213 77.5858 50.832V56H76.1458V51.04C76.1458 50.1653 75.9271 49.4987 75.4898 49.04C75.0631 48.5707 74.4818 48.336 73.7458 48.336C72.9885 48.336 72.3858 48.5813 71.9378 49.072C71.4898 49.552 71.2658 50.2507 71.2658 51.168V56H69.8258V51.04C69.8258 50.1653 69.6071 49.4987 69.1698 49.04C68.7431 48.5707 68.1618 48.336 67.4258 48.336C66.6685 48.336 66.0658 48.5813 65.6178 49.072C65.1698 49.552 64.9458 50.2507 64.9458 51.168V56H63.4898V47.232H64.9458V48.496C65.2338 48.0373 65.6178 47.6853 66.0978 47.44C66.5885 47.1947 67.1271 47.072 67.7138 47.072C68.4498 47.072 69.1005 47.2373 69.6658 47.568C70.2311 47.8987 70.6525 48.384 70.9298 49.024C71.1751 48.4053 71.5805 47.9253 72.1458 47.584C72.7111 47.2427 73.3405 47.072 74.0338 47.072ZM87.9742 51.28C87.9742 51.5573 87.9582 51.8507 87.9262 52.16H80.9182C80.9715 53.024 81.2649 53.7013 81.7982 54.192C82.3422 54.672 82.9982 54.912 83.7662 54.912C84.3955 54.912 84.9182 54.768 85.3342 54.48C85.7609 54.1813 86.0595 53.7867 86.2302 53.296H87.7982C87.5635 54.1387 87.0942 54.8267 86.3902 55.36C85.6862 55.8827 84.8115 56.144 83.7662 56.144C82.9342 56.144 82.1875 55.9573 81.5262 55.584C80.8755 55.2107 80.3635 54.6827 79.9902 54C79.6169 53.3067 79.4302 52.5067 79.4302 51.6C79.4302 50.6933 79.6115 49.8987 79.9742 49.216C80.3369 48.5333 80.8435 48.0107 81.4942 47.648C82.1555 47.2747 82.9129 47.088 83.7662 47.088C84.5982 47.088 85.3342 47.2693 85.9742 47.632C86.6142 47.9947 87.1049 48.496 87.4462 49.136C87.7982 49.7653 87.9742 50.48 87.9742 51.28ZM86.4702 50.976C86.4702 50.4213 86.3475 49.9467 86.1022 49.552C85.8569 49.1467 85.5209 48.8427 85.0942 48.64C84.6782 48.4267 84.2142 48.32 83.7022 48.32C82.9662 48.32 82.3369 48.5547 81.8142 49.024C81.3022 49.4933 81.0089 50.144 80.9342 50.976H86.4702ZM102.482 50.768H99.0737V54.224H97.7137V50.768H94.3217V49.536H97.7137V46.064H99.0737V49.536H102.482V50.768ZM112.453 56.144C111.781 56.144 111.179 56.032 110.645 55.808C110.112 55.5733 109.691 55.2533 109.381 54.848C109.072 54.432 108.901 53.9573 108.869 53.424H110.373C110.416 53.8613 110.619 54.2187 110.981 54.496C111.355 54.7733 111.84 54.912 112.437 54.912C112.992 54.912 113.429 54.7893 113.749 54.544C114.069 54.2987 114.229 53.9893 114.229 53.616C114.229 53.232 114.059 52.9493 113.717 52.768C113.376 52.576 112.848 52.3893 112.133 52.208C111.483 52.0373 110.949 51.8667 110.533 51.696C110.128 51.5147 109.776 51.2533 109.477 50.912C109.189 50.56 109.045 50.1013 109.045 49.536C109.045 49.088 109.179 48.6773 109.445 48.304C109.712 47.9307 110.091 47.6373 110.581 47.424C111.072 47.2 111.632 47.088 112.261 47.088C113.232 47.088 114.016 47.3333 114.613 47.824C115.211 48.3147 115.531 48.9867 115.573 49.84H114.117C114.085 49.3813 113.899 49.0133 113.557 48.736C113.227 48.4587 112.779 48.32 112.213 48.32C111.691 48.32 111.275 48.432 110.965 48.656C110.656 48.88 110.501 49.1733 110.501 49.536C110.501 49.824 110.592 50.064 110.773 50.256C110.965 50.4373 111.2 50.5867 111.477 50.704C111.765 50.8107 112.16 50.9333 112.661 51.072C113.291 51.2427 113.803 51.4133 114.197 51.584C114.592 51.744 114.928 51.9893 115.205 52.32C115.493 52.6507 115.643 53.0827 115.653 53.616C115.653 54.096 115.52 54.528 115.253 54.912C114.987 55.296 114.608 55.6 114.117 55.824C113.637 56.0373 113.083 56.144 112.453 56.144ZM121.533 56.144C120.711 56.144 119.965 55.9573 119.293 55.584C118.631 55.2107 118.109 54.6827 117.725 54C117.351 53.3067 117.165 52.5067 117.165 51.6C117.165 50.704 117.357 49.9147 117.741 49.232C118.135 48.5387 118.669 48.0107 119.341 47.648C120.013 47.2747 120.765 47.088 121.597 47.088C122.429 47.088 123.181 47.2747 123.853 47.648C124.525 48.0107 125.053 48.5333 125.437 49.216C125.831 49.8987 126.029 50.6933 126.029 51.6C126.029 52.5067 125.826 53.3067 125.421 54C125.026 54.6827 124.487 55.2107 123.805 55.584C123.122 55.9573 122.365 56.144 121.533 56.144ZM121.533 54.864C122.055 54.864 122.546 54.7413 123.005 54.496C123.463 54.2507 123.831 53.8827 124.109 53.392C124.397 52.9013 124.541 52.304 124.541 51.6C124.541 50.896 124.402 50.2987 124.125 49.808C123.847 49.3173 123.485 48.9547 123.037 48.72C122.589 48.4747 122.103 48.352 121.581 48.352C121.047 48.352 120.557 48.4747 120.109 48.72C119.671 48.9547 119.319 49.3173 119.053 49.808C118.786 50.2987 118.653 50.896 118.653 51.6C118.653 52.3147 118.781 52.9173 119.037 53.408C119.303 53.8987 119.655 54.2667 120.093 54.512C120.53 54.7467 121.01 54.864 121.533 54.864ZM127.399 51.6C127.399 50.6933 127.58 49.904 127.943 49.232C128.306 48.5493 128.807 48.0213 129.447 47.648C130.098 47.2747 130.839 47.088 131.671 47.088C132.748 47.088 133.634 47.3493 134.327 47.872C135.031 48.3947 135.495 49.12 135.719 50.048H134.151C134.002 49.5147 133.708 49.0933 133.271 48.784C132.844 48.4747 132.311 48.32 131.671 48.32C130.839 48.32 130.167 48.608 129.655 49.184C129.143 49.7493 128.887 50.5547 128.887 51.6C128.887 52.656 129.143 53.472 129.655 54.048C130.167 54.624 130.839 54.912 131.671 54.912C132.311 54.912 132.844 54.7627 133.271 54.464C133.698 54.1653 133.991 53.7387 134.151 53.184H135.719C135.484 54.08 135.015 54.8 134.311 55.344C133.607 55.8773 132.727 56.144 131.671 56.144C130.839 56.144 130.098 55.9573 129.447 55.584C128.807 55.2107 128.306 54.6827 127.943 54C127.58 53.3173 127.399 52.5173 127.399 51.6ZM141.511 54.832C142.866 53.744 143.927 52.8533 144.695 52.16C145.463 51.456 146.109 50.7253 146.631 49.968C147.165 49.2 147.431 48.448 147.431 47.712C147.431 47.0187 147.261 46.4747 146.919 46.08C146.589 45.6747 146.05 45.472 145.303 45.472C144.578 45.472 144.013 45.7013 143.607 46.16C143.213 46.608 142.999 47.2107 142.967 47.968H141.559C141.602 46.7733 141.965 45.8507 142.647 45.2C143.33 44.5493 144.21 44.224 145.287 44.224C146.386 44.224 147.255 44.528 147.895 45.136C148.546 45.744 148.871 46.5813 148.871 47.648C148.871 48.5333 148.605 49.3973 148.071 50.24C147.549 51.072 146.951 51.808 146.279 52.448C145.607 53.0773 144.749 53.8133 143.703 54.656H149.207V55.872H141.511V54.832Z" fill="#D9D9D9"/>
</svg>
