<svg width="45" height="38" viewBox="0 0 45 38" fill="none" xmlns="http://www.w3.org/2000/svg">
<rect width="44.9091" height="38" rx="6" fill="#DFDFDF"/>
<path d="M14.9697 15.5454V12.6667C14.9697 12.3613 15.091 12.0684 15.307 11.8524C15.5229 11.6365 15.8158 11.5151 16.1212 11.5151H19M29.9394 15.5454V12.6667C29.9394 12.3613 29.8181 12.0684 29.6022 11.8524C29.3862 11.6365 29.0933 11.5151 28.7879 11.5151H25.9091M14.9697 22.4545V25.3333C14.9697 25.6387 15.091 25.9316 15.307 26.1476C15.5229 26.3635 15.8158 26.4848 16.1212 26.4848H19M29.9394 22.4545V25.3333C29.9394 25.6387 29.8181 25.9316 29.6022 26.1476C29.3862 26.3635 29.0933 26.4848 28.7879 26.4848H25.9091M15.5455 19.5757H18.4243L20.1515 14.9697L22.4546 21.303L24.7576 16.697L26.4849 19.5757H29.3637" stroke="#202020" stroke-linecap="round" stroke-linejoin="round"/>
</svg>
