<svg width="109" height="61" viewBox="0 0 109 61" fill="none" xmlns="http://www.w3.org/2000/svg">
<path d="M1.89984 12.934C2.02118 11.3393 2.63651 10.0913 3.74584 9.19C4.85518 8.28867 6.29384 7.838 8.06184 7.838C9.24051 7.838 10.2545 8.05467 11.1038 8.488C11.9705 8.904 12.6205 9.476 13.0538 10.204C13.5045 10.932 13.7298 11.7553 13.7298 12.674C13.7298 13.7487 13.4178 14.676 12.7938 15.456C12.1872 16.236 11.3898 16.7387 10.4018 16.964V17.094C11.5285 17.3713 12.4212 17.9173 13.0798 18.732C13.7385 19.5467 14.0678 20.6127 14.0678 21.93C14.0678 22.918 13.8425 23.8107 13.3918 24.608C12.9412 25.388 12.2652 26.0033 11.3638 26.454C10.4625 26.9047 9.37918 27.13 8.11384 27.13C6.27651 27.13 4.76851 26.6533 3.58984 25.7C2.41118 24.7293 1.75251 23.36 1.61384 21.592H3.90184C4.02318 22.632 4.44784 23.4813 5.17584 24.14C5.90384 24.7987 6.87451 25.128 8.08784 25.128C9.30118 25.128 10.2198 24.816 10.8438 24.192C11.4852 23.5507 11.8058 22.7273 11.8058 21.722C11.8058 20.422 11.3725 19.486 10.5058 18.914C9.63918 18.342 8.33051 18.056 6.57984 18.056H5.98184V16.08H6.60584C8.20051 16.0627 9.40518 15.8027 10.2198 15.3C11.0345 14.78 11.4418 13.9827 11.4418 12.908C11.4418 11.9893 11.1385 11.2527 10.5318 10.698C9.94251 10.1433 9.09318 9.866 7.98384 9.866C6.90918 9.866 6.04251 10.1433 5.38384 10.698C4.72518 11.2527 4.33518 11.998 4.21384 12.934H1.89984ZM16.9764 25.102C19.1777 23.334 20.9024 21.8867 22.1504 20.76C23.3984 19.616 24.4471 18.4287 25.2964 17.198C26.1631 15.95 26.5964 14.728 26.5964 13.532C26.5964 12.4053 26.3191 11.5213 25.7644 10.88C25.2271 10.2213 24.3517 9.892 23.1384 9.892C21.9597 9.892 21.0411 10.2647 20.3824 11.01C19.7411 11.738 19.3944 12.7173 19.3424 13.948H17.0544C17.1237 12.0067 17.7131 10.5073 18.8224 9.45C19.9317 8.39267 21.3617 7.864 23.1124 7.864C24.8977 7.864 26.3104 8.358 27.3504 9.346C28.4077 10.334 28.9364 11.6947 28.9364 13.428C28.9364 14.8667 28.5031 16.2707 27.6364 17.64C26.7871 18.992 25.8164 20.188 24.7244 21.228C23.6324 22.2507 22.2371 23.4467 20.5384 24.816H29.4824V26.792H16.9764V25.102ZM32.2175 17.406C32.2175 14.4247 32.7028 12.102 33.6735 10.438C34.6441 8.75667 36.3428 7.916 38.7695 7.916C41.1788 7.916 42.8688 8.75667 43.8395 10.438C44.8101 12.102 45.2955 14.4247 45.2955 17.406C45.2955 20.4393 44.8101 22.7967 43.8395 24.478C42.8688 26.1593 41.1788 27 38.7695 27C36.3428 27 34.6441 26.1593 33.6735 24.478C32.7028 22.7967 32.2175 20.4393 32.2175 17.406ZM42.9555 17.406C42.9555 15.898 42.8515 14.624 42.6435 13.584C42.4528 12.5267 42.0455 11.6773 41.4215 11.036C40.8148 10.3947 39.9308 10.074 38.7695 10.074C37.5908 10.074 36.6895 10.3947 36.0655 11.036C35.4588 11.6773 35.0515 12.5267 34.8435 13.584C34.6528 14.624 34.5575 15.898 34.5575 17.406C34.5575 18.966 34.6528 20.2747 34.8435 21.332C35.0515 22.3893 35.4588 23.2387 36.0655 23.88C36.6895 24.5213 37.5908 24.842 38.7695 24.842C39.9308 24.842 40.8148 24.5213 41.4215 23.88C42.0455 23.2387 42.4528 22.3893 42.6435 21.332C42.8515 20.2747 42.9555 18.966 42.9555 17.406ZM48.0236 12.44C48.0236 11.2613 48.379 10.3253 49.0896 9.632C49.8003 8.92133 50.7103 8.566 51.8196 8.566C52.929 8.566 53.839 8.92133 54.5496 9.632C55.2603 10.3253 55.6156 11.2613 55.6156 12.44C55.6156 13.636 55.2603 14.5893 54.5496 15.3C53.839 15.9933 52.929 16.34 51.8196 16.34C50.7103 16.34 49.8003 15.9933 49.0896 15.3C48.379 14.5893 48.0236 13.636 48.0236 12.44ZM63.2076 8.852L52.6776 27H50.3376L60.8676 8.852H63.2076ZM51.8196 10.022C51.2303 10.022 50.7623 10.23 50.4156 10.646C50.0863 11.0447 49.9216 11.6427 49.9216 12.44C49.9216 13.2373 50.0863 13.844 50.4156 14.26C50.7623 14.676 51.2303 14.884 51.8196 14.884C52.409 14.884 52.877 14.676 53.2236 14.26C53.5703 13.8267 53.7436 13.22 53.7436 12.44C53.7436 11.6427 53.5703 11.0447 53.2236 10.646C52.877 10.23 52.409 10.022 51.8196 10.022ZM57.9816 23.412C57.9816 22.216 58.337 21.2713 59.0476 20.578C59.7583 19.8673 60.6683 19.512 61.7776 19.512C62.887 19.512 63.7883 19.8673 64.4816 20.578C65.1923 21.2713 65.5476 22.216 65.5476 23.412C65.5476 24.5907 65.1923 25.5353 64.4816 26.246C63.7883 26.9567 62.887 27.312 61.7776 27.312C60.6683 27.312 59.7583 26.9653 59.0476 26.272C58.337 25.5613 57.9816 24.608 57.9816 23.412ZM61.7516 20.994C61.1623 20.994 60.6943 21.202 60.3476 21.618C60.001 22.0167 59.8276 22.6147 59.8276 23.412C59.8276 24.192 60.001 24.79 60.3476 25.206C60.6943 25.6047 61.1623 25.804 61.7516 25.804C62.341 25.804 62.809 25.6047 63.1556 25.206C63.5023 24.79 63.6756 24.192 63.6756 23.412C63.6756 22.6147 63.5023 22.0167 63.1556 21.618C62.809 21.202 62.341 20.994 61.7516 20.994Z" fill="white"/>
<path d="M2.78956 44.848V56H1.33356V44.848H2.78956ZM15.8151 47.072C16.4977 47.072 17.1057 47.216 17.6391 47.504C18.1724 47.7813 18.5937 48.2027 18.9031 48.768C19.2124 49.3333 19.3671 50.0213 19.3671 50.832V56H17.9271V51.04C17.9271 50.1653 17.7084 49.4987 17.2711 49.04C16.8444 48.5707 16.2631 48.336 15.5271 48.336C14.7697 48.336 14.1671 48.5813 13.7191 49.072C13.2711 49.552 13.0471 50.2507 13.0471 51.168V56H11.6071V51.04C11.6071 50.1653 11.3884 49.4987 10.9511 49.04C10.5244 48.5707 9.94306 48.336 9.20706 48.336C8.44973 48.336 7.84706 48.5813 7.39906 49.072C6.95106 49.552 6.72706 50.2507 6.72706 51.168V56H5.27106V47.232H6.72706V48.496C7.01506 48.0373 7.39906 47.6853 7.87906 47.44C8.36973 47.1947 8.9084 47.072 9.49506 47.072C10.2311 47.072 10.8817 47.2373 11.4471 47.568C12.0124 47.8987 12.4337 48.384 12.7111 49.024C12.9564 48.4053 13.3617 47.9253 13.9271 47.584C14.4924 47.2427 15.1217 47.072 15.8151 47.072ZM23.2114 48.848C23.4994 48.3467 23.9261 47.9307 24.4914 47.6C25.0674 47.2587 25.7341 47.088 26.4914 47.088C27.2701 47.088 27.9741 47.2747 28.6034 47.648C29.2434 48.0213 29.7448 48.5493 30.1074 49.232C30.4701 49.904 30.6514 50.688 30.6514 51.584C30.6514 52.4693 30.4701 53.2587 30.1074 53.952C29.7448 54.6453 29.2434 55.184 28.6034 55.568C27.9741 55.952 27.2701 56.144 26.4914 56.144C25.7448 56.144 25.0834 55.9787 24.5074 55.648C23.9421 55.3067 23.5101 54.8853 23.2114 54.384V60.16H21.7554V47.232H23.2114V48.848ZM29.1634 51.584C29.1634 50.9227 29.0301 50.3467 28.7634 49.856C28.4968 49.3653 28.1341 48.992 27.6754 48.736C27.2274 48.48 26.7314 48.352 26.1874 48.352C25.6541 48.352 25.1581 48.4853 24.6994 48.752C24.2514 49.008 23.8888 49.3867 23.6114 49.888C23.3448 50.3787 23.2114 50.9493 23.2114 51.6C23.2114 52.2613 23.3448 52.8427 23.6114 53.344C23.8888 53.8347 24.2514 54.2133 24.6994 54.48C25.1581 54.736 25.6541 54.864 26.1874 54.864C26.7314 54.864 27.2274 54.736 27.6754 54.48C28.1341 54.2133 28.4968 53.8347 28.7634 53.344C29.0301 52.8427 29.1634 52.256 29.1634 51.584ZM34.0239 48.656C34.2799 48.1547 34.6426 47.7653 35.1119 47.488C35.5919 47.2107 36.1733 47.072 36.8559 47.072V48.576H36.4719C34.8399 48.576 34.0239 49.4613 34.0239 51.232V56H32.5679V47.232H34.0239V48.656ZM42.3607 56.144C41.5394 56.144 40.7927 55.9573 40.1207 55.584C39.4594 55.2107 38.9367 54.6827 38.5527 54C38.1794 53.3067 37.9927 52.5067 37.9927 51.6C37.9927 50.704 38.1847 49.9147 38.5687 49.232C38.9634 48.5387 39.4967 48.0107 40.1687 47.648C40.8407 47.2747 41.5927 47.088 42.4247 47.088C43.2567 47.088 44.0087 47.2747 44.6807 47.648C45.3527 48.0107 45.8807 48.5333 46.2647 49.216C46.6594 49.8987 46.8567 50.6933 46.8567 51.6C46.8567 52.5067 46.654 53.3067 46.2487 54C45.854 54.6827 45.3154 55.2107 44.6327 55.584C43.95 55.9573 43.1927 56.144 42.3607 56.144ZM42.3607 54.864C42.8834 54.864 43.374 54.7413 43.8327 54.496C44.2914 54.2507 44.6594 53.8827 44.9367 53.392C45.2247 52.9013 45.3687 52.304 45.3687 51.6C45.3687 50.896 45.23 50.2987 44.9527 49.808C44.6754 49.3173 44.3127 48.9547 43.8647 48.72C43.4167 48.4747 42.9314 48.352 42.4087 48.352C41.8754 48.352 41.3847 48.4747 40.9367 48.72C40.4994 48.9547 40.1474 49.3173 39.8807 49.808C39.614 50.2987 39.4807 50.896 39.4807 51.6C39.4807 52.3147 39.6087 52.9173 39.8647 53.408C40.1314 53.8987 40.4834 54.2667 40.9207 54.512C41.358 54.7467 41.838 54.864 42.3607 54.864ZM52.0351 54.656L54.7551 47.232H56.3071L52.8671 56H51.1711L47.7311 47.232H49.2991L52.0351 54.656ZM65.7398 51.28C65.7398 51.5573 65.7238 51.8507 65.6918 52.16H58.6838C58.7371 53.024 59.0305 53.7013 59.5638 54.192C60.1078 54.672 60.7638 54.912 61.5318 54.912C62.1611 54.912 62.6838 54.768 63.0998 54.48C63.5265 54.1813 63.8251 53.7867 63.9958 53.296H65.5638C65.3291 54.1387 64.8598 54.8267 64.1558 55.36C63.4518 55.8827 62.5771 56.144 61.5318 56.144C60.6998 56.144 59.9531 55.9573 59.2918 55.584C58.6411 55.2107 58.1291 54.6827 57.7558 54C57.3825 53.3067 57.1958 52.5067 57.1958 51.6C57.1958 50.6933 57.3771 49.8987 57.7398 49.216C58.1025 48.5333 58.6091 48.0107 59.2598 47.648C59.9211 47.2747 60.6785 47.088 61.5318 47.088C62.3638 47.088 63.0998 47.2693 63.7398 47.632C64.3798 47.9947 64.8705 48.496 65.2118 49.136C65.5638 49.7653 65.7398 50.48 65.7398 51.28ZM64.2358 50.976C64.2358 50.4213 64.1131 49.9467 63.8678 49.552C63.6225 49.1467 63.2865 48.8427 62.8598 48.64C62.4438 48.4267 61.9798 48.32 61.4678 48.32C60.7318 48.32 60.1025 48.5547 59.5798 49.024C59.0678 49.4933 58.7745 50.144 58.6998 50.976H64.2358ZM78.2057 47.072C78.8884 47.072 79.4964 47.216 80.0297 47.504C80.563 47.7813 80.9844 48.2027 81.2937 48.768C81.603 49.3333 81.7577 50.0213 81.7577 50.832V56H80.3177V51.04C80.3177 50.1653 80.099 49.4987 79.6617 49.04C79.235 48.5707 78.6537 48.336 77.9177 48.336C77.1604 48.336 76.5577 48.5813 76.1097 49.072C75.6617 49.552 75.4377 50.2507 75.4377 51.168V56H73.9977V51.04C73.9977 50.1653 73.779 49.4987 73.3417 49.04C72.915 48.5707 72.3337 48.336 71.5977 48.336C70.8404 48.336 70.2377 48.5813 69.7897 49.072C69.3417 49.552 69.1177 50.2507 69.1177 51.168V56H67.6617V47.232H69.1177V48.496C69.4057 48.0373 69.7897 47.6853 70.2697 47.44C70.7604 47.1947 71.299 47.072 71.8857 47.072C72.6217 47.072 73.2724 47.2373 73.8377 47.568C74.403 47.8987 74.8244 48.384 75.1017 49.024C75.347 48.4053 75.7524 47.9253 76.3177 47.584C76.883 47.2427 77.5124 47.072 78.2057 47.072ZM92.1461 51.28C92.1461 51.5573 92.1301 51.8507 92.0981 52.16H85.0901C85.1434 53.024 85.4367 53.7013 85.9701 54.192C86.5141 54.672 87.1701 54.912 87.9381 54.912C88.5674 54.912 89.0901 54.768 89.5061 54.48C89.9327 54.1813 90.2314 53.7867 90.4021 53.296H91.9701C91.7354 54.1387 91.2661 54.8267 90.5621 55.36C89.8581 55.8827 88.9834 56.144 87.9381 56.144C87.1061 56.144 86.3594 55.9573 85.6981 55.584C85.0474 55.2107 84.5354 54.6827 84.1621 54C83.7887 53.3067 83.6021 52.5067 83.6021 51.6C83.6021 50.6933 83.7834 49.8987 84.1461 49.216C84.5087 48.5333 85.0154 48.0107 85.6661 47.648C86.3274 47.2747 87.0847 47.088 87.9381 47.088C88.7701 47.088 89.5061 47.2693 90.1461 47.632C90.7861 47.9947 91.2767 48.496 91.6181 49.136C91.9701 49.7653 92.1461 50.48 92.1461 51.28ZM90.6421 50.976C90.6421 50.4213 90.5194 49.9467 90.2741 49.552C90.0287 49.1467 89.6927 48.8427 89.2661 48.64C88.8501 48.4267 88.3861 48.32 87.8741 48.32C87.1381 48.32 86.5087 48.5547 85.9861 49.024C85.4741 49.4933 85.1807 50.144 85.1061 50.976H90.6421ZM98.3399 47.072C99.4066 47.072 100.271 47.3973 100.932 48.048C101.593 48.688 101.924 49.616 101.924 50.832V56H100.484V51.04C100.484 50.1653 100.265 49.4987 99.8279 49.04C99.3906 48.5707 98.7933 48.336 98.0359 48.336C97.2679 48.336 96.6546 48.576 96.1959 49.056C95.7479 49.536 95.5239 50.2347 95.5239 51.152V56H94.0679V47.232H95.5239V48.48C95.8119 48.032 96.2013 47.6853 96.6919 47.44C97.1933 47.1947 97.7426 47.072 98.3399 47.072ZM106.078 48.432V53.6C106.078 54.0267 106.169 54.3307 106.35 54.512C106.532 54.6827 106.846 54.768 107.294 54.768H108.366V56H107.054C106.244 56 105.636 55.8133 105.23 55.44C104.825 55.0667 104.622 54.4533 104.622 53.6V48.432H103.486V47.232H104.622V45.024H106.078V47.232H108.366V48.432H106.078Z" fill="#D9D9D9"/>
</svg>
