<svg width="243" height="139" viewBox="0 0 243 139" fill="none" xmlns="http://www.w3.org/2000/svg">
<path d="M1 52.1239L17.8908 33.9717C20.8828 30.7562 25.9077 30.5543 29.1481 33.5194L29.4375 33.7843C32.6576 36.7308 37.6451 36.5525 40.6465 33.3835L57.1336 15.976C60.8695 12.0315 67.3665 12.8784 69.9664 17.6488L81.5654 38.9309C84.0548 43.4985 90.1728 44.5129 94.003 40.993L99.9063 35.5681C103.894 31.904 110.293 33.1768 112.575 38.0877L130.655 77.0011C133.689 83.5316 143.132 83.0422 145.475 76.2329L161.314 30.1981C162.425 26.9688 165.463 24.8009 168.878 24.8009H188.464C190.462 24.8009 192.388 24.0532 193.863 22.7049L212.87 5.32531C216.099 2.37255 221.102 2.56213 224.098 5.75084L242 24.8009" stroke="url(#paint0_linear_4895_1502)"/>
<path d="M17.672 33.665L3.21087 48.8273C1.79173 50.3153 1 52.2925 1 54.3487V131C1 135.418 4.58172 139 9 139H234C238.418 139 242 135.418 242 131V27.5533C242 25.4884 241.202 23.5034 239.772 22.0137L223.979 5.55904C221 2.45569 216.101 2.26315 212.888 5.12318L193.579 22.3108C192.114 23.6149 190.221 24.3353 188.26 24.3353H168.323C164.92 24.3353 161.889 26.4885 160.769 29.7022L144.967 75.0379C142.604 81.8172 133.198 82.2932 130.163 75.7871L112.322 37.5463C110.034 32.6406 103.635 31.3767 99.6531 35.0438L93.6766 40.5475C89.8669 44.0558 83.7784 43.0747 81.2637 38.5472L69.6812 17.6943C67.0716 12.9961 60.664 12.1561 56.9316 16.0229L40.3326 33.2195C37.3421 36.3177 32.4359 36.493 29.2319 33.6162L28.8059 33.2337C25.5881 30.3445 20.6567 30.5355 17.672 33.665Z" fill="url(#paint1_linear_4895_1502)" fill-opacity="0.13"/>
<defs>
<linearGradient id="paint0_linear_4895_1502" x1="182.021" y1="-4.24713" x2="136.727" y2="107.258" gradientUnits="userSpaceOnUse">
<stop stop-color="#050505"/>
<stop offset="0.50338" stop-color="#DFDFDF"/>
<stop offset="1" stop-color="#050505"/>
</linearGradient>
<linearGradient id="paint1_linear_4895_1502" x1="121.5" y1="0" x2="121.5" y2="139" gradientUnits="userSpaceOnUse">
<stop stop-color="#202020"/>
<stop offset="1" stop-color="white"/>
</linearGradient>
</defs>
</svg>
