<svg width="67" height="57" viewBox="0 0 67 57" fill="none" xmlns="http://www.w3.org/2000/svg">
<rect width="67" height="57" rx="6" fill="#202020"/>
<path d="M32.0758 25.335L28.719 19.5C27.2458 20.3534 26.0221 21.5818 25.171 23.0616C24.3198 24.5415 23.8712 26.2205 23.8704 27.93H30.5839C30.5845 27.4039 30.7226 26.8872 30.9844 26.4317C31.2463 25.9763 31.6227 25.598 32.0758 25.335Z" stroke="#D9D9D9" stroke-linecap="round" stroke-linejoin="round"/>
<path d="M36.5515 27.93H43.2651C43.2642 26.2205 42.8156 24.5415 41.9645 23.0616C41.1133 21.5818 39.8896 20.3534 38.4164 19.5L35.0596 25.335C35.5128 25.598 35.8892 25.9763 36.151 26.4317C36.4129 26.8872 36.551 27.4039 36.5515 27.93Z" stroke="#D9D9D9" stroke-linecap="round" stroke-linejoin="round"/>
<path d="M33.5677 30.93C33.045 30.9336 32.5306 30.7991 32.0758 30.54L28.719 36.375C30.1937 37.2293 31.8658 37.6789 33.5677 37.6789C35.2697 37.6789 36.9417 37.2293 38.4164 36.375L35.0596 30.54C34.6049 30.7991 34.0904 30.9336 33.5677 30.93Z" stroke="#D9D9D9" stroke-linecap="round" stroke-linejoin="round"/>
</svg>
