<svg width="459" height="169" viewBox="0 0 459 169" fill="none" xmlns="http://www.w3.org/2000/svg">
<path d="M1 62.5L39.1943 36.7805C41.7223 35.0782 44.998 34.9601 47.642 36.4761L61.7174 44.5464C64.341 46.0507 67.5885 45.9469 70.1107 44.2783L116.076 13.869C119.423 11.6548 123.892 12.2629 126.526 15.2908L158.918 52.5315C161.429 55.4178 165.631 56.123 168.946 54.2141L197.877 37.5553C201.397 35.5287 205.876 36.4608 208.295 39.723L255.57 103.477C259.043 108.161 266.201 107.674 269.008 102.562L306.574 34.1495C307.979 31.5904 310.667 30 313.586 30H360.635C362.03 30 363.402 29.6351 364.612 28.9414L409.958 2.96127C412.59 1.45315 415.849 1.56366 418.373 3.24663L458.496 30" stroke="url(#paint0_linear_4895_1483)"/>
<path d="M39.1992 36.7614L5.05308 59.6237C2.83512 61.1087 1.50391 63.602 1.50391 66.2712V160.5C1.50391 164.918 5.08564 168.5 9.50392 168.5H451C455.418 168.5 459 164.918 459 160.5V33.7862C459 31.1088 457.661 28.6088 455.432 27.1257L418.763 2.72905C416.248 1.05562 413.004 0.941751 410.378 2.43467L364.603 28.4549C363.398 29.1399 362.036 29.5 360.65 29.5H313.096C310.17 29.5 307.476 31.0982 306.074 33.6671L268.541 102.43C265.73 107.579 258.519 108.053 255.059 103.317L208.324 39.3478C205.899 36.0283 201.353 35.0872 197.809 37.1711L168.969 54.1308C165.648 56.0839 161.406 55.3921 158.878 52.485L126.526 15.2908C123.892 12.2629 119.423 11.6548 116.076 13.869L70.1107 44.2783C67.5885 45.9469 64.341 46.0507 61.7175 44.5464L47.6293 36.4688C44.9919 34.9566 41.7254 35.07 39.1992 36.7614Z" fill="url(#paint1_linear_4895_1483)" fill-opacity="0.13"/>
<defs>
<linearGradient id="paint0_linear_4895_1483" x1="344.637" y1="-4.55185" x2="307.701" y2="140.564" gradientUnits="userSpaceOnUse">
<stop stop-color="#050505"/>
<stop offset="0.50338" stop-color="#DFDFDF"/>
<stop offset="1" stop-color="#050505"/>
</linearGradient>
<linearGradient id="paint1_linear_4895_1483" x1="230.252" y1="0" x2="230.252" y2="168.5" gradientUnits="userSpaceOnUse">
<stop stop-color="#202020"/>
<stop offset="1" stop-color="white"/>
</linearGradient>
</defs>
</svg>
