<svg width="157" height="40" viewBox="0 0 157 40" fill="none" xmlns="http://www.w3.org/2000/svg">
<rect width="157" height="40" rx="20" fill="#202020"/>
<circle cx="21" cy="19" r="6" fill="#D9D9D9"/>
<path d="M39.7583 15.032V18.76H43.8223V19.96H39.7583V23.8H44.3023V25H38.3023V13.832H44.3023V15.032H39.7583ZM51.0814 25L49.0014 21.736L47.0014 25H45.4814L48.3134 20.648L45.4814 16.232H47.1294L49.2094 19.48L51.1934 16.232H52.7134L49.8974 20.568L52.7294 25H51.0814ZM55.6177 17.848C55.9057 17.3467 56.3324 16.9307 56.8977 16.6C57.4737 16.2587 58.1404 16.088 58.8977 16.088C59.6764 16.088 60.3804 16.2747 61.0097 16.648C61.6497 17.0213 62.151 17.5493 62.5137 18.232C62.8764 18.904 63.0577 19.688 63.0577 20.584C63.0577 21.4693 62.8764 22.2587 62.5137 22.952C62.151 23.6453 61.6497 24.184 61.0097 24.568C60.3804 24.952 59.6764 25.144 58.8977 25.144C58.151 25.144 57.4897 24.9787 56.9137 24.648C56.3484 24.3067 55.9164 23.8853 55.6177 23.384V29.16H54.1617V16.232H55.6177V17.848ZM61.5697 20.584C61.5697 19.9227 61.4364 19.3467 61.1697 18.856C60.903 18.3653 60.5404 17.992 60.0817 17.736C59.6337 17.48 59.1377 17.352 58.5937 17.352C58.0604 17.352 57.5644 17.4853 57.1057 17.752C56.6577 18.008 56.295 18.3867 56.0177 18.888C55.751 19.3787 55.6177 19.9493 55.6177 20.6C55.6177 21.2613 55.751 21.8427 56.0177 22.344C56.295 22.8347 56.6577 23.2133 57.1057 23.48C57.5644 23.736 58.0604 23.864 58.5937 23.864C59.1377 23.864 59.6337 23.736 60.0817 23.48C60.5404 23.2133 60.903 22.8347 61.1697 22.344C61.4364 21.8427 61.5697 21.256 61.5697 20.584ZM66.4302 13.16V25H64.9742V13.16H66.4302ZM72.7357 25.144C71.9144 25.144 71.1677 24.9573 70.4957 24.584C69.8344 24.2107 69.3117 23.6827 68.9277 23C68.5544 22.3067 68.3677 21.5067 68.3677 20.6C68.3677 19.704 68.5597 18.9147 68.9437 18.232C69.3384 17.5387 69.8717 17.0107 70.5437 16.648C71.2157 16.2747 71.9677 16.088 72.7997 16.088C73.6317 16.088 74.3837 16.2747 75.0557 16.648C75.7277 17.0107 76.2557 17.5333 76.6397 18.216C77.0344 18.8987 77.2317 19.6933 77.2317 20.6C77.2317 21.5067 77.029 22.3067 76.6237 23C76.229 23.6827 75.6904 24.2107 75.0077 24.584C74.325 24.9573 73.5677 25.144 72.7357 25.144ZM72.7357 23.864C73.2584 23.864 73.749 23.7413 74.2077 23.496C74.6664 23.2507 75.0344 22.8827 75.3117 22.392C75.5997 21.9013 75.7437 21.304 75.7437 20.6C75.7437 19.896 75.605 19.2987 75.3277 18.808C75.0504 18.3173 74.6877 17.9547 74.2397 17.72C73.7917 17.4747 73.3064 17.352 72.7837 17.352C72.2504 17.352 71.7597 17.4747 71.3117 17.72C70.8744 17.9547 70.5224 18.3173 70.2557 18.808C69.989 19.2987 69.8557 19.896 69.8557 20.6C69.8557 21.3147 69.9837 21.9173 70.2397 22.408C70.5064 22.8987 70.8584 23.2667 71.2957 23.512C71.733 23.7467 72.213 23.864 72.7357 23.864ZM80.6021 17.656C80.8581 17.1547 81.2207 16.7653 81.6901 16.488C82.1701 16.2107 82.7514 16.072 83.4341 16.072V17.576H83.0501C81.4181 17.576 80.6021 18.4613 80.6021 20.232V25H79.1461V16.232H80.6021V17.656ZM84.5708 20.584C84.5708 19.688 84.7521 18.904 85.1148 18.232C85.4775 17.5493 85.9735 17.0213 86.6028 16.648C87.2428 16.2747 87.9521 16.088 88.7308 16.088C89.4988 16.088 90.1655 16.2533 90.7308 16.584C91.2961 16.9147 91.7175 17.3307 91.9948 17.832V16.232H93.4668V25H91.9948V23.368C91.7068 23.88 91.2748 24.3067 90.6988 24.648C90.1335 24.9787 89.4721 25.144 88.7148 25.144C87.9361 25.144 87.2321 24.952 86.6028 24.568C85.9735 24.184 85.4775 23.6453 85.1148 22.952C84.7521 22.2587 84.5708 21.4693 84.5708 20.584ZM91.9948 20.6C91.9948 19.9387 91.8615 19.3627 91.5948 18.872C91.3281 18.3813 90.9655 18.008 90.5068 17.752C90.0588 17.4853 89.5628 17.352 89.0188 17.352C88.4748 17.352 87.9788 17.48 87.5308 17.736C87.0828 17.992 86.7255 18.3653 86.4588 18.856C86.1921 19.3467 86.0588 19.9227 86.0588 20.584C86.0588 21.256 86.1921 21.8427 86.4588 22.344C86.7255 22.8347 87.0828 23.2133 87.5308 23.48C87.9788 23.736 88.4748 23.864 89.0188 23.864C89.5628 23.864 90.0588 23.736 90.5068 23.48C90.9655 23.2133 91.3281 22.8347 91.5948 22.344C91.8615 21.8427 91.9948 21.2613 91.9948 20.6ZM97.7033 17.432V22.6C97.7033 23.0267 97.794 23.3307 97.9753 23.512C98.1566 23.6827 98.4713 23.768 98.9193 23.768H99.9913V25H98.6793C97.8686 25 97.2606 24.8133 96.8553 24.44C96.45 24.0667 96.2473 23.4533 96.2473 22.6V17.432H95.1113V16.232H96.2473V14.024H97.7033V16.232H99.9913V17.432H97.7033ZM102.507 14.808C102.23 14.808 101.995 14.712 101.803 14.52C101.611 14.328 101.515 14.0933 101.515 13.816C101.515 13.5387 101.611 13.304 101.803 13.112C101.995 12.92 102.23 12.824 102.507 12.824C102.774 12.824 102.998 12.92 103.179 13.112C103.371 13.304 103.467 13.5387 103.467 13.816C103.467 14.0933 103.371 14.328 103.179 14.52C102.998 14.712 102.774 14.808 102.507 14.808ZM103.211 16.232V25H101.755V16.232H103.211ZM109.517 25.144C108.696 25.144 107.949 24.9573 107.277 24.584C106.616 24.2107 106.093 23.6827 105.709 23C105.336 22.3067 105.149 21.5067 105.149 20.6C105.149 19.704 105.341 18.9147 105.725 18.232C106.12 17.5387 106.653 17.0107 107.325 16.648C107.997 16.2747 108.749 16.088 109.581 16.088C110.413 16.088 111.165 16.2747 111.837 16.648C112.509 17.0107 113.037 17.5333 113.421 18.216C113.816 18.8987 114.013 19.6933 114.013 20.6C114.013 21.5067 113.81 22.3067 113.405 23C113.01 23.6827 112.472 24.2107 111.789 24.584C111.106 24.9573 110.349 25.144 109.517 25.144ZM109.517 23.864C110.04 23.864 110.53 23.7413 110.989 23.496C111.448 23.2507 111.816 22.8827 112.093 22.392C112.381 21.9013 112.525 21.304 112.525 20.6C112.525 19.896 112.386 19.2987 112.109 18.808C111.832 18.3173 111.469 17.9547 111.021 17.72C110.573 17.4747 110.088 17.352 109.565 17.352C109.032 17.352 108.541 17.4747 108.093 17.72C107.656 17.9547 107.304 18.3173 107.037 18.808C106.77 19.2987 106.637 19.896 106.637 20.6C106.637 21.3147 106.765 21.9173 107.021 22.408C107.288 22.8987 107.64 23.2667 108.077 23.512C108.514 23.7467 108.994 23.864 109.517 23.864ZM120.199 16.072C121.266 16.072 122.13 16.3973 122.791 17.048C123.453 17.688 123.783 18.616 123.783 19.832V25H122.343V20.04C122.343 19.1653 122.125 18.4987 121.687 18.04C121.25 17.5707 120.653 17.336 119.895 17.336C119.127 17.336 118.514 17.576 118.055 18.056C117.607 18.536 117.383 19.2347 117.383 20.152V25H115.927V16.232H117.383V17.48C117.671 17.032 118.061 16.6853 118.551 16.44C119.053 16.1947 119.602 16.072 120.199 16.072Z" fill="#DFDFDF"/>
</svg>
