<svg width="33" height="34" viewBox="0 0 33 34" fill="none" xmlns="http://www.w3.org/2000/svg">
<path d="M9.55848 0.656738C4.59337 0.656738 0.568359 4.75769 0.568359 9.81648V23.8614C0.568359 28.9202 4.59337 33.0212 9.55848 33.0212H13.9887V20.2755H11.3565V16.9543H13.9887V14.2674C13.9887 12.2523 14.483 10.8094 15.4716 9.93861C16.4849 9.04299 17.906 8.59518 19.7349 8.59518H21.6627V11.9538H20.3281C19.4631 11.9538 18.8452 12.1403 18.4744 12.5135C18.1037 12.8618 17.9184 13.4589 17.9184 14.3048V16.9543H22.1446V20.2755H17.9184V33.0212H23.9427C28.9078 33.0212 32.9328 28.9202 32.9328 23.8614V9.81648C32.9328 4.75769 28.9078 0.656738 23.9427 0.656738H9.55848Z" fill="white"/>
</svg>
