<svg width="157" height="40" viewBox="0 0 157 40" fill="none" xmlns="http://www.w3.org/2000/svg">
<rect width="157" height="40" rx="20" fill="#202020"/>
<circle cx="21" cy="19" r="6" fill="#D9D9D9"/>
<path d="M50.6219 13.848V15.032H45.7739V18.792H49.7099V19.976H45.7739V25H44.3179V13.848H50.6219ZM56.2044 25.144C55.3831 25.144 54.6364 24.9573 53.9644 24.584C53.3031 24.2107 52.7804 23.6827 52.3964 23C52.0231 22.3067 51.8364 21.5067 51.8364 20.6C51.8364 19.704 52.0284 18.9147 52.4124 18.232C52.8071 17.5387 53.3404 17.0107 54.0124 16.648C54.6844 16.2747 55.4364 16.088 56.2684 16.088C57.1004 16.088 57.8524 16.2747 58.5244 16.648C59.1964 17.0107 59.7244 17.5333 60.1084 18.216C60.5031 18.8987 60.7004 19.6933 60.7004 20.6C60.7004 21.5067 60.4978 22.3067 60.0924 23C59.6978 23.6827 59.1591 24.2107 58.4764 24.584C57.7938 24.9573 57.0364 25.144 56.2044 25.144ZM56.2044 23.864C56.7271 23.864 57.2178 23.7413 57.6764 23.496C58.1351 23.2507 58.5031 22.8827 58.7804 22.392C59.0684 21.9013 59.2124 21.304 59.2124 20.6C59.2124 19.896 59.0738 19.2987 58.7964 18.808C58.5191 18.3173 58.1564 17.9547 57.7084 17.72C57.2604 17.4747 56.7751 17.352 56.2524 17.352C55.7191 17.352 55.2284 17.4747 54.7804 17.72C54.3431 17.9547 53.9911 18.3173 53.7244 18.808C53.4578 19.2987 53.3244 19.896 53.3244 20.6C53.3244 21.3147 53.4524 21.9173 53.7084 22.408C53.9751 22.8987 54.3271 23.2667 54.7644 23.512C55.2018 23.7467 55.6818 23.864 56.2044 23.864ZM64.0708 17.656C64.3268 17.1547 64.6895 16.7653 65.1588 16.488C65.6388 16.2107 66.2201 16.072 66.9028 16.072V17.576H66.5188C64.8868 17.576 64.0708 18.4613 64.0708 20.232V25H62.6148V16.232H64.0708V17.656ZM76.5836 20.28C76.5836 20.5573 76.5676 20.8507 76.5356 21.16H69.5276C69.5809 22.024 69.8742 22.7013 70.4076 23.192C70.9516 23.672 71.6076 23.912 72.3756 23.912C73.0049 23.912 73.5276 23.768 73.9436 23.48C74.3702 23.1813 74.6689 22.7867 74.8396 22.296H76.4076C76.1729 23.1387 75.7036 23.8267 74.9996 24.36C74.2956 24.8827 73.4209 25.144 72.3756 25.144C71.5436 25.144 70.7969 24.9573 70.1356 24.584C69.4849 24.2107 68.9729 23.6827 68.5996 23C68.2262 22.3067 68.0396 21.5067 68.0396 20.6C68.0396 19.6933 68.2209 18.8987 68.5836 18.216C68.9462 17.5333 69.4529 17.0107 70.1036 16.648C70.7649 16.2747 71.5222 16.088 72.3756 16.088C73.2076 16.088 73.9436 16.2693 74.5836 16.632C75.2236 16.9947 75.7142 17.496 76.0556 18.136C76.4076 18.7653 76.5836 19.48 76.5836 20.28ZM75.0796 19.976C75.0796 19.4213 74.9569 18.9467 74.7116 18.552C74.4662 18.1467 74.1302 17.8427 73.7036 17.64C73.2876 17.4267 72.8236 17.32 72.3116 17.32C71.5756 17.32 70.9462 17.5547 70.4236 18.024C69.9116 18.4933 69.6182 19.144 69.5436 19.976H75.0796ZM77.9614 20.6C77.9614 19.6933 78.1428 18.904 78.5054 18.232C78.8681 17.5493 79.3694 17.0213 80.0094 16.648C80.6601 16.2747 81.4014 16.088 82.2334 16.088C83.3108 16.088 84.1961 16.3493 84.8894 16.872C85.5934 17.3947 86.0574 18.12 86.2814 19.048H84.7134C84.5641 18.5147 84.2708 18.0933 83.8334 17.784C83.4068 17.4747 82.8734 17.32 82.2334 17.32C81.4014 17.32 80.7294 17.608 80.2174 18.184C79.7054 18.7493 79.4494 19.5547 79.4494 20.6C79.4494 21.656 79.7054 22.472 80.2174 23.048C80.7294 23.624 81.4014 23.912 82.2334 23.912C82.8734 23.912 83.4068 23.7627 83.8334 23.464C84.2601 23.1653 84.5534 22.7387 84.7134 22.184H86.2814C86.0468 23.08 85.5774 23.8 84.8734 24.344C84.1694 24.8773 83.2894 25.144 82.2334 25.144C81.4014 25.144 80.6601 24.9573 80.0094 24.584C79.3694 24.2107 78.8681 23.6827 78.5054 23C78.1428 22.3173 77.9614 21.5173 77.9614 20.6ZM87.6802 20.584C87.6802 19.688 87.8615 18.904 88.2242 18.232C88.5869 17.5493 89.0829 17.0213 89.7122 16.648C90.3522 16.2747 91.0615 16.088 91.8402 16.088C92.6082 16.088 93.2749 16.2533 93.8402 16.584C94.4055 16.9147 94.8269 17.3307 95.1042 17.832V16.232H96.5762V25H95.1042V23.368C94.8162 23.88 94.3842 24.3067 93.8082 24.648C93.2429 24.9787 92.5815 25.144 91.8242 25.144C91.0455 25.144 90.3415 24.952 89.7122 24.568C89.0829 24.184 88.5869 23.6453 88.2242 22.952C87.8615 22.2587 87.6802 21.4693 87.6802 20.584ZM95.1042 20.6C95.1042 19.9387 94.9709 19.3627 94.7042 18.872C94.4375 18.3813 94.0749 18.008 93.6162 17.752C93.1682 17.4853 92.6722 17.352 92.1282 17.352C91.5842 17.352 91.0882 17.48 90.6402 17.736C90.1922 17.992 89.8349 18.3653 89.5682 18.856C89.3015 19.3467 89.1682 19.9227 89.1682 20.584C89.1682 21.256 89.3015 21.8427 89.5682 22.344C89.8349 22.8347 90.1922 23.2133 90.6402 23.48C91.0882 23.736 91.5842 23.864 92.1282 23.864C92.6722 23.864 93.1682 23.736 93.6162 23.48C94.0749 23.2133 94.4375 22.8347 94.7042 22.344C94.9709 21.8427 95.1042 21.2613 95.1042 20.6ZM102.141 25.144C101.469 25.144 100.866 25.032 100.333 24.808C99.7994 24.5733 99.378 24.2533 99.0687 23.848C98.7594 23.432 98.5887 22.9573 98.5567 22.424H100.061C100.103 22.8613 100.306 23.2187 100.669 23.496C101.042 23.7733 101.527 23.912 102.125 23.912C102.679 23.912 103.117 23.7893 103.437 23.544C103.757 23.2987 103.917 22.9893 103.917 22.616C103.917 22.232 103.746 21.9493 103.405 21.768C103.063 21.576 102.535 21.3893 101.821 21.208C101.17 21.0373 100.637 20.8667 100.221 20.696C99.8154 20.5147 99.4634 20.2533 99.1647 19.912C98.8767 19.56 98.7327 19.1013 98.7327 18.536C98.7327 18.088 98.866 17.6773 99.1327 17.304C99.3994 16.9307 99.778 16.6373 100.269 16.424C100.759 16.2 101.319 16.088 101.949 16.088C102.919 16.088 103.703 16.3333 104.301 16.824C104.898 17.3147 105.218 17.9867 105.261 18.84H103.805C103.773 18.3813 103.586 18.0133 103.245 17.736C102.914 17.4587 102.466 17.32 101.901 17.32C101.378 17.32 100.962 17.432 100.653 17.656C100.343 17.88 100.189 18.1733 100.189 18.536C100.189 18.824 100.279 19.064 100.461 19.256C100.653 19.4373 100.887 19.5867 101.165 19.704C101.453 19.8107 101.847 19.9333 102.349 20.072C102.978 20.2427 103.49 20.4133 103.885 20.584C104.279 20.744 104.615 20.9893 104.893 21.32C105.181 21.6507 105.33 22.0827 105.341 22.616C105.341 23.096 105.207 23.528 104.941 23.912C104.674 24.296 104.295 24.6 103.805 24.824C103.325 25.0373 102.77 25.144 102.141 25.144ZM109.172 17.432V22.6C109.172 23.0267 109.263 23.3307 109.444 23.512C109.625 23.6827 109.94 23.768 110.388 23.768H111.46V25H110.148C109.337 25 108.729 24.8133 108.324 24.44C107.919 24.0667 107.716 23.4533 107.716 22.6V17.432H106.58V16.232H107.716V14.024H109.172V16.232H111.46V17.432H109.172ZM113.976 14.808C113.699 14.808 113.464 14.712 113.272 14.52C113.08 14.328 112.984 14.0933 112.984 13.816C112.984 13.5387 113.08 13.304 113.272 13.112C113.464 12.92 113.699 12.824 113.976 12.824C114.243 12.824 114.467 12.92 114.648 13.112C114.84 13.304 114.936 13.5387 114.936 13.816C114.936 14.0933 114.84 14.328 114.648 14.52C114.467 14.712 114.243 14.808 113.976 14.808ZM114.68 16.232V25H113.224V16.232H114.68ZM121.434 16.072C122.5 16.072 123.364 16.3973 124.026 17.048C124.687 17.688 125.018 18.616 125.018 19.832V25H123.578V20.04C123.578 19.1653 123.359 18.4987 122.922 18.04C122.484 17.5707 121.887 17.336 121.13 17.336C120.362 17.336 119.748 17.576 119.29 18.056C118.842 18.536 118.618 19.2347 118.618 20.152V25H117.162V16.232H118.618V17.48C118.906 17.032 119.295 16.6853 119.786 16.44C120.287 16.1947 120.836 16.072 121.434 16.072ZM131.012 16.088C131.769 16.088 132.431 16.2533 132.996 16.584C133.572 16.9147 133.999 17.3307 134.276 17.832V16.232H135.748V25.192C135.748 25.992 135.577 26.7013 135.236 27.32C134.895 27.9493 134.404 28.44 133.764 28.792C133.135 29.144 132.399 29.32 131.556 29.32C130.404 29.32 129.444 29.048 128.676 28.504C127.908 27.96 127.455 27.2187 127.316 26.28H128.756C128.916 26.8133 129.247 27.24 129.748 27.56C130.249 27.8907 130.852 28.056 131.556 28.056C132.356 28.056 133.007 27.8053 133.508 27.304C134.02 26.8027 134.276 26.0987 134.276 25.192V23.352C133.988 23.864 133.561 24.2907 132.996 24.632C132.431 24.9733 131.769 25.144 131.012 25.144C130.233 25.144 129.524 24.952 128.884 24.568C128.255 24.184 127.759 23.6453 127.396 22.952C127.033 22.2587 126.852 21.4693 126.852 20.584C126.852 19.688 127.033 18.904 127.396 18.232C127.759 17.5493 128.255 17.0213 128.884 16.648C129.524 16.2747 130.233 16.088 131.012 16.088ZM134.276 20.6C134.276 19.9387 134.143 19.3627 133.876 18.872C133.609 18.3813 133.247 18.008 132.788 17.752C132.34 17.4853 131.844 17.352 131.3 17.352C130.756 17.352 130.26 17.48 129.812 17.736C129.364 17.992 129.007 18.3653 128.74 18.856C128.473 19.3467 128.34 19.9227 128.34 20.584C128.34 21.256 128.473 21.8427 128.74 22.344C129.007 22.8347 129.364 23.2133 129.812 23.48C130.26 23.736 130.756 23.864 131.3 23.864C131.844 23.864 132.34 23.736 132.788 23.48C133.247 23.2133 133.609 22.8347 133.876 22.344C134.143 21.8427 134.276 21.2613 134.276 20.6Z" fill="#DFDFDF"/>
</svg>
