<svg width="23" height="10" viewBox="0 0 23 10" fill="none" xmlns="http://www.w3.org/2000/svg">
<path d="M17.1429 9.48123C17.7936 9.53906 18.4501 9.46286 19.0653 9.25811C19.6805 9.05335 20.2392 8.7251 20.7014 8.29685C21.1636 7.86861 21.5179 7.35098 21.7389 6.78101C21.9599 6.21105 22.0422 5.60286 21.9797 5C22.0422 4.39714 21.9599 3.78895 21.7389 3.21899C21.5179 2.64903 21.1636 2.13139 20.7014 1.70315C20.2392 1.2749 19.6805 0.946651 19.0653 0.741895C18.4501 0.537138 17.7936 0.460943 17.1429 0.518767C12.7092 0.518767 10.2908 9.48123 5.85706 9.48123C5.20637 9.53906 4.54992 9.46286 3.93473 9.25811C3.31954 9.05335 2.76083 8.7251 2.29861 8.29685C1.83639 7.86861 1.48209 7.35098 1.26109 6.78101C1.04008 6.21105 0.957844 5.60286 1.02026 5C0.957844 4.39714 1.04008 3.78895 1.26109 3.21899C1.48209 2.64903 1.83639 2.13139 2.29861 1.70315C2.76083 1.2749 3.31954 0.946651 3.93473 0.741895C4.54992 0.537138 5.20637 0.460943 5.85706 0.518767C10.2908 0.518767 12.7092 9.48123 17.1429 9.48123Z" stroke="#202020" stroke-linecap="round" stroke-linejoin="round"/>
</svg>
