<svg width="157" height="40" viewBox="0 0 157 40" fill="none" xmlns="http://www.w3.org/2000/svg">
<rect width="157" height="40" rx="20" fill="#202020"/>
<circle cx="21" cy="19" r="6" fill="#D9D9D9"/>
<path d="M44.0083 13.848V25H42.5523V13.848H44.0083ZM50.7618 16.072C51.8285 16.072 52.6925 16.3973 53.3538 17.048C54.0151 17.688 54.3458 18.616 54.3458 19.832V25H52.9058V20.04C52.9058 19.1653 52.6871 18.4987 52.2498 18.04C51.8125 17.5707 51.2151 17.336 50.4578 17.336C49.6898 17.336 49.0765 17.576 48.6178 18.056C48.1698 18.536 47.9458 19.2347 47.9458 20.152V25H46.4898V16.232H47.9458V17.48C48.2338 17.032 48.6231 16.6853 49.1138 16.44C49.6151 16.1947 50.1645 16.072 50.7618 16.072ZM60.2922 17.432H58.4522V25H56.9962V17.432H55.8602V16.232H56.9962V15.608C56.9962 14.6267 57.2469 13.912 57.7482 13.464C58.2602 13.0053 59.0762 12.776 60.1962 12.776V13.992C59.5562 13.992 59.1029 14.12 58.8362 14.376C58.5802 14.6213 58.4522 15.032 58.4522 15.608V16.232H60.2922V17.432ZM65.8138 25.144C64.9925 25.144 64.2458 24.9573 63.5738 24.584C62.9125 24.2107 62.3898 23.6827 62.0058 23C61.6325 22.3067 61.4458 21.5067 61.4458 20.6C61.4458 19.704 61.6378 18.9147 62.0218 18.232C62.4165 17.5387 62.9498 17.0107 63.6218 16.648C64.2938 16.2747 65.0458 16.088 65.8778 16.088C66.7098 16.088 67.4618 16.2747 68.1338 16.648C68.8058 17.0107 69.3338 17.5333 69.7178 18.216C70.1125 18.8987 70.3098 19.6933 70.3098 20.6C70.3098 21.5067 70.1071 22.3067 69.7018 23C69.3071 23.6827 68.7685 24.2107 68.0858 24.584C67.4031 24.9573 66.6458 25.144 65.8138 25.144ZM65.8138 23.864C66.3365 23.864 66.8271 23.7413 67.2858 23.496C67.7445 23.2507 68.1125 22.8827 68.3898 22.392C68.6778 21.9013 68.8218 21.304 68.8218 20.6C68.8218 19.896 68.6831 19.2987 68.4058 18.808C68.1285 18.3173 67.7658 17.9547 67.3178 17.72C66.8698 17.4747 66.3845 17.352 65.8618 17.352C65.3285 17.352 64.8378 17.4747 64.3898 17.72C63.9525 17.9547 63.6005 18.3173 63.3338 18.808C63.0671 19.2987 62.9338 19.896 62.9338 20.6C62.9338 21.3147 63.0618 21.9173 63.3178 22.408C63.5845 22.8987 63.9365 23.2667 64.3738 23.512C64.8111 23.7467 65.2911 23.864 65.8138 23.864ZM73.6802 17.656C73.9362 17.1547 74.2989 16.7653 74.7682 16.488C75.2482 16.2107 75.8295 16.072 76.5122 16.072V17.576H76.1282C74.4962 17.576 73.6802 18.4613 73.6802 20.232V25H72.2242V16.232H73.6802V17.656ZM88.7369 16.072C89.4196 16.072 90.0276 16.216 90.5609 16.504C91.0943 16.7813 91.5156 17.2027 91.8249 17.768C92.1343 18.3333 92.2889 19.0213 92.2889 19.832V25H90.8489V20.04C90.8489 19.1653 90.6303 18.4987 90.1929 18.04C89.7663 17.5707 89.1849 17.336 88.4489 17.336C87.6916 17.336 87.0889 17.5813 86.6409 18.072C86.1929 18.552 85.9689 19.2507 85.9689 20.168V25H84.5289V20.04C84.5289 19.1653 84.3103 18.4987 83.8729 18.04C83.4463 17.5707 82.8649 17.336 82.1289 17.336C81.3716 17.336 80.7689 17.5813 80.3209 18.072C79.8729 18.552 79.6489 19.2507 79.6489 20.168V25H78.1929V16.232H79.6489V17.496C79.9369 17.0373 80.3209 16.6853 80.8009 16.44C81.2916 16.1947 81.8303 16.072 82.4169 16.072C83.1529 16.072 83.8036 16.2373 84.3689 16.568C84.9343 16.8987 85.3556 17.384 85.6329 18.024C85.8783 17.4053 86.2836 16.9253 86.8489 16.584C87.4143 16.2427 88.0436 16.072 88.7369 16.072ZM94.1333 20.584C94.1333 19.688 94.3146 18.904 94.6773 18.232C95.04 17.5493 95.536 17.0213 96.1653 16.648C96.8053 16.2747 97.5146 16.088 98.2933 16.088C99.0613 16.088 99.728 16.2533 100.293 16.584C100.859 16.9147 101.28 17.3307 101.557 17.832V16.232H103.029V25H101.557V23.368C101.269 23.88 100.837 24.3067 100.261 24.648C99.696 24.9787 99.0346 25.144 98.2773 25.144C97.4986 25.144 96.7946 24.952 96.1653 24.568C95.536 24.184 95.04 23.6453 94.6773 22.952C94.3146 22.2587 94.1333 21.4693 94.1333 20.584ZM101.557 20.6C101.557 19.9387 101.424 19.3627 101.157 18.872C100.891 18.3813 100.528 18.008 100.069 17.752C99.6213 17.4853 99.1253 17.352 98.5813 17.352C98.0373 17.352 97.5413 17.48 97.0933 17.736C96.6453 17.992 96.288 18.3653 96.0213 18.856C95.7546 19.3467 95.6213 19.9227 95.6213 20.584C95.6213 21.256 95.7546 21.8427 96.0213 22.344C96.288 22.8347 96.6453 23.2133 97.0933 23.48C97.5413 23.736 98.0373 23.864 98.5813 23.864C99.1253 23.864 99.6213 23.736 100.069 23.48C100.528 23.2133 100.891 22.8347 101.157 22.344C101.424 21.8427 101.557 21.2613 101.557 20.6ZM107.266 17.432V22.6C107.266 23.0267 107.356 23.3307 107.538 23.512C107.719 23.6827 108.034 23.768 108.482 23.768H109.554V25H108.242C107.431 25 106.823 24.8133 106.418 24.44C106.012 24.0667 105.81 23.4533 105.81 22.6V17.432H104.674V16.232H105.81V14.024H107.266V16.232H109.554V17.432H107.266ZM112.07 14.808C111.793 14.808 111.558 14.712 111.366 14.52C111.174 14.328 111.078 14.0933 111.078 13.816C111.078 13.5387 111.174 13.304 111.366 13.112C111.558 12.92 111.793 12.824 112.07 12.824C112.337 12.824 112.561 12.92 112.742 13.112C112.934 13.304 113.03 13.5387 113.03 13.816C113.03 14.0933 112.934 14.328 112.742 14.52C112.561 14.712 112.337 14.808 112.07 14.808ZM112.774 16.232V25H111.318V16.232H112.774ZM119.831 25L117.751 21.736L115.751 25H114.231L117.063 20.648L114.231 16.232H115.879L117.959 19.48L119.943 16.232H121.463L118.647 20.568L121.479 25H119.831Z" fill="#DFDFDF"/>
</svg>
