<svg width="157" height="40" viewBox="0 0 157 40" fill="none" xmlns="http://www.w3.org/2000/svg">
<rect width="157" height="40" rx="20" fill="#202020"/>
<circle cx="21" cy="19" r="6" fill="#D9D9D9"/>
<path d="M47.9068 13.848V25H46.4508V13.848H47.9068ZM54.6603 16.072C55.7269 16.072 56.5909 16.3973 57.2523 17.048C57.9136 17.688 58.2443 18.616 58.2443 19.832V25H56.8043V20.04C56.8043 19.1653 56.5856 18.4987 56.1483 18.04C55.7109 17.5707 55.1136 17.336 54.3563 17.336C53.5883 17.336 52.9749 17.576 52.5163 18.056C52.0683 18.536 51.8443 19.2347 51.8443 20.152V25H50.3883V16.232H51.8443V17.48C52.1323 17.032 52.5216 16.6853 53.0123 16.44C53.5136 16.1947 54.0629 16.072 54.6603 16.072ZM63.7266 25.144C63.0546 25.144 62.452 25.032 61.9186 24.808C61.3853 24.5733 60.964 24.2533 60.6546 23.848C60.3453 23.432 60.1746 22.9573 60.1426 22.424H61.6466C61.6893 22.8613 61.892 23.2187 62.2546 23.496C62.628 23.7733 63.1133 23.912 63.7106 23.912C64.2653 23.912 64.7026 23.7893 65.0226 23.544C65.3426 23.2987 65.5026 22.9893 65.5026 22.616C65.5026 22.232 65.332 21.9493 64.9906 21.768C64.6493 21.576 64.1213 21.3893 63.4066 21.208C62.756 21.0373 62.2226 20.8667 61.8066 20.696C61.4013 20.5147 61.0493 20.2533 60.7506 19.912C60.4626 19.56 60.3186 19.1013 60.3186 18.536C60.3186 18.088 60.452 17.6773 60.7186 17.304C60.9853 16.9307 61.364 16.6373 61.8546 16.424C62.3453 16.2 62.9053 16.088 63.5346 16.088C64.5053 16.088 65.2893 16.3333 65.8866 16.824C66.484 17.3147 66.804 17.9867 66.8466 18.84H65.3906C65.3586 18.3813 65.172 18.0133 64.8306 17.736C64.5 17.4587 64.052 17.32 63.4866 17.32C62.964 17.32 62.548 17.432 62.2386 17.656C61.9293 17.88 61.7746 18.1733 61.7746 18.536C61.7746 18.824 61.8653 19.064 62.0466 19.256C62.2386 19.4373 62.4733 19.5867 62.7506 19.704C63.0386 19.8107 63.4333 19.9333 63.9346 20.072C64.564 20.2427 65.076 20.4133 65.4706 20.584C65.8653 20.744 66.2013 20.9893 66.4786 21.32C66.7666 21.6507 66.916 22.0827 66.9266 22.616C66.9266 23.096 66.7933 23.528 66.5266 23.912C66.26 24.296 65.8813 24.6 65.3906 24.824C64.9106 25.0373 64.356 25.144 63.7266 25.144ZM69.734 14.808C69.4567 14.808 69.222 14.712 69.03 14.52C68.838 14.328 68.742 14.0933 68.742 13.816C68.742 13.5387 68.838 13.304 69.03 13.112C69.222 12.92 69.4567 12.824 69.734 12.824C70.0007 12.824 70.2247 12.92 70.406 13.112C70.598 13.304 70.694 13.5387 70.694 13.816C70.694 14.0933 70.598 14.328 70.406 14.52C70.2247 14.712 70.0007 14.808 69.734 14.808ZM70.438 16.232V25H68.982V16.232H70.438ZM76.5355 16.088C77.2928 16.088 77.9542 16.2533 78.5195 16.584C79.0955 16.9147 79.5222 17.3307 79.7995 17.832V16.232H81.2715V25.192C81.2715 25.992 81.1008 26.7013 80.7595 27.32C80.4182 27.9493 79.9275 28.44 79.2875 28.792C78.6582 29.144 77.9222 29.32 77.0795 29.32C75.9275 29.32 74.9675 29.048 74.1995 28.504C73.4315 27.96 72.9782 27.2187 72.8395 26.28H74.2795C74.4395 26.8133 74.7702 27.24 75.2715 27.56C75.7728 27.8907 76.3755 28.056 77.0795 28.056C77.8795 28.056 78.5302 27.8053 79.0315 27.304C79.5435 26.8027 79.7995 26.0987 79.7995 25.192V23.352C79.5115 23.864 79.0848 24.2907 78.5195 24.632C77.9542 24.9733 77.2928 25.144 76.5355 25.144C75.7568 25.144 75.0475 24.952 74.4075 24.568C73.7782 24.184 73.2822 23.6453 72.9195 22.952C72.5568 22.2587 72.3755 21.4693 72.3755 20.584C72.3755 19.688 72.5568 18.904 72.9195 18.232C73.2822 17.5493 73.7782 17.0213 74.4075 16.648C75.0475 16.2747 75.7568 16.088 76.5355 16.088ZM79.7995 20.6C79.7995 19.9387 79.6662 19.3627 79.3995 18.872C79.1328 18.3813 78.7702 18.008 78.3115 17.752C77.8635 17.4853 77.3675 17.352 76.8235 17.352C76.2795 17.352 75.7835 17.48 75.3355 17.736C74.8875 17.992 74.5302 18.3653 74.2635 18.856C73.9968 19.3467 73.8635 19.9227 73.8635 20.584C73.8635 21.256 73.9968 21.8427 74.2635 22.344C74.5302 22.8347 74.8875 23.2133 75.3355 23.48C75.7835 23.736 76.2795 23.864 76.8235 23.864C77.3675 23.864 77.8635 23.736 78.3115 23.48C78.7702 23.2133 79.1328 22.8347 79.3995 22.344C79.6662 21.8427 79.7995 21.2613 79.7995 20.6ZM88.084 16.072C88.7453 16.072 89.3427 16.216 89.876 16.504C90.4093 16.7813 90.8253 17.2027 91.124 17.768C91.4333 18.3333 91.588 19.0213 91.588 19.832V25H90.148V20.04C90.148 19.1653 89.9293 18.4987 89.492 18.04C89.0547 17.5707 88.4573 17.336 87.7 17.336C86.932 17.336 86.3187 17.576 85.86 18.056C85.412 18.536 85.188 19.2347 85.188 20.152V25H83.732V13.16H85.188V17.48C85.476 17.032 85.8707 16.6853 86.372 16.44C86.884 16.1947 87.4547 16.072 88.084 16.072ZM95.7424 17.432V22.6C95.7424 23.0267 95.833 23.3307 96.0144 23.512C96.1957 23.6827 96.5104 23.768 96.9584 23.768H98.0304V25H96.7184C95.9077 25 95.2997 24.8133 94.8944 24.44C94.489 24.0667 94.2864 23.4533 94.2864 22.6V17.432H93.1504V16.232H94.2864V14.024H95.7424V16.232H98.0304V17.432H95.7424ZM100.547 14.808C100.269 14.808 100.035 14.712 99.8425 14.52C99.6505 14.328 99.5545 14.0933 99.5545 13.816C99.5545 13.5387 99.6505 13.304 99.8425 13.112C100.035 12.92 100.269 12.824 100.547 12.824C100.813 12.824 101.037 12.92 101.219 13.112C101.411 13.304 101.507 13.5387 101.507 13.816C101.507 14.0933 101.411 14.328 101.219 14.52C101.037 14.712 100.813 14.808 100.547 14.808ZM101.251 16.232V25H99.7945V16.232H101.251ZM107.3 17.432H105.46V25H104.004V17.432H102.868V16.232H104.004V15.608C104.004 14.6267 104.255 13.912 104.756 13.464C105.268 13.0053 106.084 12.776 107.204 12.776V13.992C106.564 13.992 106.111 14.12 105.844 14.376C105.588 14.6213 105.46 15.032 105.46 15.608V16.232H107.3V17.432ZM116.55 16.232L111.27 29.128H109.766L111.494 24.904L107.958 16.232H109.574L112.326 23.336L115.046 16.232H116.55Z" fill="#DFDFDF"/>
</svg>
