<svg width="33" height="34" viewBox="0 0 33 34" fill="none" xmlns="http://www.w3.org/2000/svg">
<path fill-rule="evenodd" clip-rule="evenodd" d="M8.03553 0.656738H25.6046C27.5649 0.662799 29.4431 1.44448 30.8289 2.831C32.2146 4.21751 32.9952 6.09613 33.0002 8.05639V25.6251C32.9944 27.5848 32.2134 29.4626 30.8278 30.8484C29.4421 32.2341 27.5643 33.0153 25.6046 33.0212H8.03553C6.07513 33.0162 4.19638 32.2355 2.80983 30.8497C1.42327 29.4638 0.641643 27.5855 0.635742 25.6251V8.05639C0.641004 6.0955 1.42231 4.21642 2.8089 2.82986C4.19549 1.44329 6.07461 0.662 8.03553 0.656738ZM17.3047 23.6758C21.2501 23.6758 24.4485 20.4774 24.4485 16.532C24.4485 12.5865 21.2501 9.38811 17.3047 9.38811C13.3592 9.38811 10.1608 12.5865 10.1608 16.532C10.1608 20.4774 13.3592 23.6758 17.3047 23.6758Z" fill="white"/>
</svg>
