<svg width="157" height="40" viewBox="0 0 157 40" fill="none" xmlns="http://www.w3.org/2000/svg">
<rect width="157" height="40" rx="20" fill="#202020"/>
<circle cx="21" cy="19" r="6" fill="#D9D9D9"/>
<path d="M48.8443 13.848V25H47.3883V13.848H48.8443ZM55.5978 16.072C56.6644 16.072 57.5284 16.3973 58.1898 17.048C58.8511 17.688 59.1818 18.616 59.1818 19.832V25H57.7418V20.04C57.7418 19.1653 57.5231 18.4987 57.0858 18.04C56.6484 17.5707 56.0511 17.336 55.2938 17.336C54.5258 17.336 53.9124 17.576 53.4538 18.056C53.0058 18.536 52.7818 19.2347 52.7818 20.152V25H51.3258V16.232H52.7818V17.48C53.0698 17.032 53.4591 16.6853 53.9498 16.44C54.4511 16.1947 55.0004 16.072 55.5978 16.072ZM63.3361 17.432V22.6C63.3361 23.0267 63.4268 23.3307 63.6081 23.512C63.7895 23.6827 64.1041 23.768 64.5521 23.768H65.6241V25H64.3121C63.5015 25 62.8935 24.8133 62.4881 24.44C62.0828 24.0667 61.8801 23.4533 61.8801 22.6V17.432H60.7441V16.232H61.8801V14.024H63.3361V16.232H65.6241V17.432H63.3361ZM75.3883 20.28C75.3883 20.5573 75.3723 20.8507 75.3403 21.16H68.3323C68.3856 22.024 68.6789 22.7013 69.2123 23.192C69.7563 23.672 70.4123 23.912 71.1803 23.912C71.8096 23.912 72.3323 23.768 72.7483 23.48C73.1749 23.1813 73.4736 22.7867 73.6443 22.296H75.2123C74.9776 23.1387 74.5083 23.8267 73.8043 24.36C73.1003 24.8827 72.2256 25.144 71.1803 25.144C70.3483 25.144 69.6016 24.9573 68.9403 24.584C68.2896 24.2107 67.7776 23.6827 67.4043 23C67.0309 22.3067 66.8443 21.5067 66.8443 20.6C66.8443 19.6933 67.0256 18.8987 67.3883 18.216C67.7509 17.5333 68.2576 17.0107 68.9083 16.648C69.5696 16.2747 70.3269 16.088 71.1803 16.088C72.0123 16.088 72.7483 16.2693 73.3883 16.632C74.0283 16.9947 74.5189 17.496 74.8603 18.136C75.2123 18.7653 75.3883 19.48 75.3883 20.28ZM73.8843 19.976C73.8843 19.4213 73.7616 18.9467 73.5163 18.552C73.2709 18.1467 72.9349 17.8427 72.5083 17.64C72.0923 17.4267 71.6283 17.32 71.1163 17.32C70.3803 17.32 69.7509 17.5547 69.2283 18.024C68.7163 18.4933 68.4229 19.144 68.3483 19.976H73.8843ZM80.9261 16.088C81.6835 16.088 82.3448 16.2533 82.9101 16.584C83.4861 16.9147 83.9128 17.3307 84.1901 17.832V16.232H85.6621V25.192C85.6621 25.992 85.4915 26.7013 85.1501 27.32C84.8088 27.9493 84.3181 28.44 83.6781 28.792C83.0488 29.144 82.3128 29.32 81.4701 29.32C80.3181 29.32 79.3581 29.048 78.5901 28.504C77.8221 27.96 77.3688 27.2187 77.2301 26.28H78.6701C78.8301 26.8133 79.1608 27.24 79.6621 27.56C80.1635 27.8907 80.7661 28.056 81.4701 28.056C82.2701 28.056 82.9208 27.8053 83.4221 27.304C83.9341 26.8027 84.1901 26.0987 84.1901 25.192V23.352C83.9021 23.864 83.4755 24.2907 82.9101 24.632C82.3448 24.9733 81.6835 25.144 80.9261 25.144C80.1475 25.144 79.4381 24.952 78.7981 24.568C78.1688 24.184 77.6728 23.6453 77.3101 22.952C76.9475 22.2587 76.7661 21.4693 76.7661 20.584C76.7661 19.688 76.9475 18.904 77.3101 18.232C77.6728 17.5493 78.1688 17.0213 78.7981 16.648C79.4381 16.2747 80.1475 16.088 80.9261 16.088ZM84.1901 20.6C84.1901 19.9387 84.0568 19.3627 83.7901 18.872C83.5235 18.3813 83.1608 18.008 82.7021 17.752C82.2541 17.4853 81.7581 17.352 81.2141 17.352C80.6701 17.352 80.1741 17.48 79.7261 17.736C79.2781 17.992 78.9208 18.3653 78.6541 18.856C78.3875 19.3467 78.2541 19.9227 78.2541 20.584C78.2541 21.256 78.3875 21.8427 78.6541 22.344C78.9208 22.8347 79.2781 23.2133 79.7261 23.48C80.1741 23.736 80.6701 23.864 81.2141 23.864C81.7581 23.864 82.2541 23.736 82.7021 23.48C83.1608 23.2133 83.5235 22.8347 83.7901 22.344C84.0568 21.8427 84.1901 21.2613 84.1901 20.6ZM89.5786 17.656C89.8346 17.1547 90.1973 16.7653 90.6666 16.488C91.1466 16.2107 91.728 16.072 92.4106 16.072V17.576H92.0266C90.3946 17.576 89.5786 18.4613 89.5786 20.232V25H88.1226V16.232H89.5786V17.656ZM93.5474 20.584C93.5474 19.688 93.7287 18.904 94.0914 18.232C94.454 17.5493 94.95 17.0213 95.5794 16.648C96.2194 16.2747 96.9287 16.088 97.7074 16.088C98.4754 16.088 99.142 16.2533 99.7074 16.584C100.273 16.9147 100.694 17.3307 100.971 17.832V16.232H102.443V25H100.971V23.368C100.683 23.88 100.251 24.3067 99.6754 24.648C99.11 24.9787 98.4487 25.144 97.6914 25.144C96.9127 25.144 96.2087 24.952 95.5794 24.568C94.95 24.184 94.454 23.6453 94.0914 22.952C93.7287 22.2587 93.5474 21.4693 93.5474 20.584ZM100.971 20.6C100.971 19.9387 100.838 19.3627 100.571 18.872C100.305 18.3813 99.942 18.008 99.4834 17.752C99.0354 17.4853 98.5394 17.352 97.9954 17.352C97.4514 17.352 96.9554 17.48 96.5074 17.736C96.0594 17.992 95.702 18.3653 95.4354 18.856C95.1687 19.3467 95.0354 19.9227 95.0354 20.584C95.0354 21.256 95.1687 21.8427 95.4354 22.344C95.702 22.8347 96.0594 23.2133 96.5074 23.48C96.9554 23.736 97.4514 23.864 97.9954 23.864C98.5394 23.864 99.0354 23.736 99.4834 23.48C99.942 23.2133 100.305 22.8347 100.571 22.344C100.838 21.8427 100.971 21.2613 100.971 20.6ZM106.68 17.432V22.6C106.68 23.0267 106.771 23.3307 106.952 23.512C107.133 23.6827 107.448 23.768 107.896 23.768H108.968V25H107.656C106.845 25 106.237 24.8133 105.832 24.44C105.427 24.0667 105.224 23.4533 105.224 22.6V17.432H104.088V16.232H105.224V14.024H106.68V16.232H108.968V17.432H106.68ZM111.484 14.808C111.207 14.808 110.972 14.712 110.78 14.52C110.588 14.328 110.492 14.0933 110.492 13.816C110.492 13.5387 110.588 13.304 110.78 13.112C110.972 12.92 111.207 12.824 111.484 12.824C111.751 12.824 111.975 12.92 112.156 13.112C112.348 13.304 112.444 13.5387 112.444 13.816C112.444 14.0933 112.348 14.328 112.156 14.52C111.975 14.712 111.751 14.808 111.484 14.808ZM112.188 16.232V25H110.732V16.232H112.188ZM118.494 25.144C117.672 25.144 116.926 24.9573 116.254 24.584C115.592 24.2107 115.07 23.6827 114.686 23C114.312 22.3067 114.126 21.5067 114.126 20.6C114.126 19.704 114.318 18.9147 114.702 18.232C115.096 17.5387 115.63 17.0107 116.302 16.648C116.974 16.2747 117.726 16.088 118.558 16.088C119.39 16.088 120.142 16.2747 120.814 16.648C121.486 17.0107 122.014 17.5333 122.398 18.216C122.792 18.8987 122.99 19.6933 122.99 20.6C122.99 21.5067 122.787 22.3067 122.382 23C121.987 23.6827 121.448 24.2107 120.766 24.584C120.083 24.9573 119.326 25.144 118.494 25.144ZM118.494 23.864C119.016 23.864 119.507 23.7413 119.966 23.496C120.424 23.2507 120.792 22.8827 121.07 22.392C121.358 21.9013 121.502 21.304 121.502 20.6C121.502 19.896 121.363 19.2987 121.086 18.808C120.808 18.3173 120.446 17.9547 119.998 17.72C119.55 17.4747 119.064 17.352 118.542 17.352C118.008 17.352 117.518 17.4747 117.07 17.72C116.632 17.9547 116.28 18.3173 116.014 18.808C115.747 19.2987 115.614 19.896 115.614 20.6C115.614 21.3147 115.742 21.9173 115.998 22.408C116.264 22.8987 116.616 23.2667 117.054 23.512C117.491 23.7467 117.971 23.864 118.494 23.864ZM129.176 16.072C130.243 16.072 131.107 16.3973 131.768 17.048C132.429 17.688 132.76 18.616 132.76 19.832V25H131.32V20.04C131.32 19.1653 131.101 18.4987 130.664 18.04C130.227 17.5707 129.629 17.336 128.872 17.336C128.104 17.336 127.491 17.576 127.032 18.056C126.584 18.536 126.36 19.2347 126.36 20.152V25H124.904V16.232H126.36V17.48C126.648 17.032 127.037 16.6853 127.528 16.44C128.029 16.1947 128.579 16.072 129.176 16.072Z" fill="#DFDFDF"/>
</svg>
