<svg width="157" height="40" viewBox="0 0 157 40" fill="none" xmlns="http://www.w3.org/2000/svg">
<rect width="157" height="40" rx="20" fill="#202020"/>
<circle cx="21" cy="19" r="6" fill="#D9D9D9"/>
<path d="M48.8911 13.848V25H47.4351V13.848H48.8911ZM55.6446 16.072C56.7113 16.072 57.5753 16.3973 58.2366 17.048C58.898 17.688 59.2286 18.616 59.2286 19.832V25H57.7886V20.04C57.7886 19.1653 57.57 18.4987 57.1326 18.04C56.6953 17.5707 56.098 17.336 55.3406 17.336C54.5726 17.336 53.9593 17.576 53.5006 18.056C53.0526 18.536 52.8286 19.2347 52.8286 20.152V25H51.3726V16.232H52.8286V17.48C53.1166 17.032 53.506 16.6853 53.9966 16.44C54.498 16.1947 55.0473 16.072 55.6446 16.072ZM63.383 17.432V22.6C63.383 23.0267 63.4737 23.3307 63.655 23.512C63.8363 23.6827 64.151 23.768 64.599 23.768H65.671V25H64.359C63.5483 25 62.9403 24.8133 62.535 24.44C62.1297 24.0667 61.927 23.4533 61.927 22.6V17.432H60.791V16.232H61.927V14.024H63.383V16.232H65.671V17.432H63.383ZM75.4351 20.28C75.4351 20.5573 75.4191 20.8507 75.3871 21.16H68.3791C68.4325 22.024 68.7258 22.7013 69.2591 23.192C69.8031 23.672 70.4591 23.912 71.2271 23.912C71.8565 23.912 72.3791 23.768 72.7951 23.48C73.2218 23.1813 73.5205 22.7867 73.6911 22.296H75.2591C75.0245 23.1387 74.5551 23.8267 73.8511 24.36C73.1471 24.8827 72.2725 25.144 71.2271 25.144C70.3951 25.144 69.6485 24.9573 68.9871 24.584C68.3365 24.2107 67.8245 23.6827 67.4511 23C67.0778 22.3067 66.8911 21.5067 66.8911 20.6C66.8911 19.6933 67.0725 18.8987 67.4351 18.216C67.7978 17.5333 68.3045 17.0107 68.9551 16.648C69.6165 16.2747 70.3738 16.088 71.2271 16.088C72.0591 16.088 72.7951 16.2693 73.4351 16.632C74.0751 16.9947 74.5658 17.496 74.9071 18.136C75.2591 18.7653 75.4351 19.48 75.4351 20.28ZM73.9311 19.976C73.9311 19.4213 73.8085 18.9467 73.5631 18.552C73.3178 18.1467 72.9818 17.8427 72.5551 17.64C72.1391 17.4267 71.6751 17.32 71.1631 17.32C70.4271 17.32 69.7978 17.5547 69.2751 18.024C68.7631 18.4933 68.4698 19.144 68.3951 19.976H73.9311ZM78.813 17.656C79.069 17.1547 79.4317 16.7653 79.901 16.488C80.381 16.2107 80.9623 16.072 81.645 16.072V17.576H81.261C79.629 17.576 78.813 18.4613 78.813 20.232V25H77.357V16.232H78.813V17.656ZM82.7818 20.584C82.7818 19.688 82.9631 18.904 83.3258 18.232C83.6884 17.5493 84.1844 17.0213 84.8138 16.648C85.4538 16.2747 86.1631 16.088 86.9418 16.088C87.7098 16.088 88.3764 16.2533 88.9418 16.584C89.5071 16.9147 89.9284 17.3307 90.2058 17.832V16.232H91.6778V25H90.2058V23.368C89.9178 23.88 89.4858 24.3067 88.9098 24.648C88.3444 24.9787 87.6831 25.144 86.9258 25.144C86.1471 25.144 85.4431 24.952 84.8138 24.568C84.1844 24.184 83.6884 23.6453 83.3258 22.952C82.9631 22.2587 82.7818 21.4693 82.7818 20.584ZM90.2058 20.6C90.2058 19.9387 90.0724 19.3627 89.8058 18.872C89.5391 18.3813 89.1764 18.008 88.7178 17.752C88.2698 17.4853 87.7738 17.352 87.2298 17.352C86.6858 17.352 86.1898 17.48 85.7418 17.736C85.2938 17.992 84.9364 18.3653 84.6698 18.856C84.4031 19.3467 84.2698 19.9227 84.2698 20.584C84.2698 21.256 84.4031 21.8427 84.6698 22.344C84.9364 22.8347 85.2938 23.2133 85.7418 23.48C86.1898 23.736 86.6858 23.864 87.2298 23.864C87.7738 23.864 88.2698 23.736 88.7178 23.48C89.1764 23.2133 89.5391 22.8347 89.8058 22.344C90.0724 21.8427 90.2058 21.2613 90.2058 20.6ZM93.5943 20.6C93.5943 19.6933 93.7756 18.904 94.1383 18.232C94.5009 17.5493 95.0023 17.0213 95.6423 16.648C96.2929 16.2747 97.0343 16.088 97.8663 16.088C98.9436 16.088 99.8289 16.3493 100.522 16.872C101.226 17.3947 101.69 18.12 101.914 19.048H100.346C100.197 18.5147 99.9036 18.0933 99.4663 17.784C99.0396 17.4747 98.5063 17.32 97.8663 17.32C97.0343 17.32 96.3623 17.608 95.8503 18.184C95.3383 18.7493 95.0823 19.5547 95.0823 20.6C95.0823 21.656 95.3383 22.472 95.8503 23.048C96.3623 23.624 97.0343 23.912 97.8663 23.912C98.5063 23.912 99.0396 23.7627 99.4663 23.464C99.8929 23.1653 100.186 22.7387 100.346 22.184H101.914C101.68 23.08 101.21 23.8 100.506 24.344C99.8023 24.8773 98.9223 25.144 97.8663 25.144C97.0343 25.144 96.2929 24.9573 95.6423 24.584C95.0023 24.2107 94.5009 23.6827 94.1383 23C93.7756 22.3173 93.5943 21.5173 93.5943 20.6ZM105.633 17.432V22.6C105.633 23.0267 105.724 23.3307 105.905 23.512C106.086 23.6827 106.401 23.768 106.849 23.768H107.921V25H106.609C105.798 25 105.19 24.8133 104.785 24.44C104.38 24.0667 104.177 23.4533 104.177 22.6V17.432H103.041V16.232H104.177V14.024H105.633V16.232H107.921V17.432H105.633ZM110.437 14.808C110.16 14.808 109.925 14.712 109.733 14.52C109.541 14.328 109.445 14.0933 109.445 13.816C109.445 13.5387 109.541 13.304 109.733 13.112C109.925 12.92 110.16 12.824 110.437 12.824C110.704 12.824 110.928 12.92 111.109 13.112C111.301 13.304 111.397 13.5387 111.397 13.816C111.397 14.0933 111.301 14.328 111.109 14.52C110.928 14.712 110.704 14.808 110.437 14.808ZM111.141 16.232V25H109.685V16.232H111.141ZM117.447 25.144C116.625 25.144 115.879 24.9573 115.207 24.584C114.545 24.2107 114.023 23.6827 113.639 23C113.265 22.3067 113.079 21.5067 113.079 20.6C113.079 19.704 113.271 18.9147 113.655 18.232C114.049 17.5387 114.583 17.0107 115.255 16.648C115.927 16.2747 116.679 16.088 117.511 16.088C118.343 16.088 119.095 16.2747 119.767 16.648C120.439 17.0107 120.967 17.5333 121.351 18.216C121.745 18.8987 121.943 19.6933 121.943 20.6C121.943 21.5067 121.74 22.3067 121.335 23C120.94 23.6827 120.401 24.2107 119.719 24.584C119.036 24.9573 118.279 25.144 117.447 25.144ZM117.447 23.864C117.969 23.864 118.46 23.7413 118.919 23.496C119.377 23.2507 119.745 22.8827 120.023 22.392C120.311 21.9013 120.455 21.304 120.455 20.6C120.455 19.896 120.316 19.2987 120.039 18.808C119.761 18.3173 119.399 17.9547 118.951 17.72C118.503 17.4747 118.017 17.352 117.495 17.352C116.961 17.352 116.471 17.4747 116.023 17.72C115.585 17.9547 115.233 18.3173 114.967 18.808C114.7 19.2987 114.567 19.896 114.567 20.6C114.567 21.3147 114.695 21.9173 114.951 22.408C115.217 22.8987 115.569 23.2667 116.007 23.512C116.444 23.7467 116.924 23.864 117.447 23.864ZM128.129 16.072C129.196 16.072 130.06 16.3973 130.721 17.048C131.382 17.688 131.713 18.616 131.713 19.832V25H130.273V20.04C130.273 19.1653 130.054 18.4987 129.617 18.04C129.18 17.5707 128.582 17.336 127.825 17.336C127.057 17.336 126.444 17.576 125.985 18.056C125.537 18.536 125.313 19.2347 125.313 20.152V25H123.857V16.232H125.313V17.48C125.601 17.032 125.99 16.6853 126.481 16.44C126.982 16.1947 127.532 16.072 128.129 16.072Z" fill="#DFDFDF"/>
</svg>
