<svg width="90" height="85" viewBox="0 0 90 85" fill="none" xmlns="http://www.w3.org/2000/svg">
<rect x="0.882812" y="0.180603" width="88.5567" height="84.6383" rx="10" fill="white"/>
<path d="M42.3268 41.4185C40.4586 40.9963 38.5171 40.993 36.6474 41.4087C34.7778 41.8244 33.0283 42.6484 31.5298 43.8192C30.0313 44.9899 28.8225 46.4771 27.9939 48.1694C27.1653 49.8618 26.7383 51.7157 26.7447 53.5923V57.752H42.3268M45.8682 30.7143C45.8682 34.1603 43.0142 36.9538 39.4937 36.9538C35.9731 36.9538 33.1192 34.1603 33.1192 30.7143C33.1192 27.2684 35.9731 24.4749 39.4937 24.4749C43.0142 24.4749 45.8682 27.2684 45.8682 30.7143ZM55.5574 60.4419C55.2461 60.552 54.9053 60.552 54.5941 60.4419C52.2314 59.5257 50.204 57.9364 48.7745 55.8796C47.3451 53.8228 46.5793 51.3934 46.5764 48.9058V45.2731C46.5639 45.0878 46.592 44.9021 46.6587 44.7283C46.7255 44.5545 46.8294 44.3967 46.9635 44.2654C47.0977 44.1341 47.2589 44.0324 47.4364 43.9671C47.614 43.9017 47.8037 43.8743 47.993 43.8865H62.1585C62.3478 43.8743 62.5375 43.9017 62.7151 43.9671C62.8926 44.0324 63.0538 44.1341 63.188 44.2654C63.3221 44.3967 63.426 44.5545 63.4928 44.7283C63.5595 44.9021 63.5876 45.0878 63.5751 45.2731V48.9058C63.5722 51.3934 62.8064 53.8228 61.377 55.8796C59.9475 57.9364 57.9201 59.5257 55.5574 60.4419Z" stroke="#202020" stroke-width="2" stroke-linecap="round" stroke-linejoin="round"/>
</svg>
