<svg width="30" height="30" viewBox="0 0 30 30" fill="none" xmlns="http://www.w3.org/2000/svg">
<path d="M15 0C23.2843 0 30 6.71573 30 15C30 23.2843 23.2843 30 15 30C6.71573 30 0 23.2843 0 15C0 6.71573 6.71573 0 15 0ZM15 1.875C7.75126 1.875 1.875 7.75126 1.875 15C1.875 22.2487 7.75126 28.125 15 28.125C22.2487 28.125 28.125 22.2487 28.125 15C28.125 7.75126 22.2487 1.875 15 1.875ZM15.2744 8.71191C15.6405 8.3458 16.2345 8.3458 16.6006 8.71191L22.2256 14.3369C22.5917 14.703 22.5917 15.297 22.2256 15.6631L16.6006 21.2881C16.2345 21.6542 15.6405 21.6542 15.2744 21.2881C14.9083 20.922 14.9083 20.328 15.2744 19.9619L19.2988 15.9375H8.4375C7.91973 15.9375 7.5 15.5178 7.5 15C7.5 14.4822 7.91973 14.0625 8.4375 14.0625H19.2988L15.2744 10.0381C14.9083 9.67197 14.9083 9.07803 15.2744 8.71191Z" fill="white"/>
</svg>
