<svg width="157" height="40" viewBox="0 0 157 40" fill="none" xmlns="http://www.w3.org/2000/svg">
<rect width="157" height="40" rx="20" fill="#202020"/>
<circle cx="21" cy="19" r="6" fill="#D9D9D9"/>
<path d="M56.698 13.848L52.49 25H50.81L46.602 13.848H48.154L51.658 23.464L55.162 13.848H56.698ZM59.0465 14.808C58.7692 14.808 58.5345 14.712 58.3425 14.52C58.1505 14.328 58.0545 14.0933 58.0545 13.816C58.0545 13.5387 58.1505 13.304 58.3425 13.112C58.5345 12.92 58.7692 12.824 59.0465 12.824C59.3132 12.824 59.5372 12.92 59.7185 13.112C59.9105 13.304 60.0065 13.5387 60.0065 13.816C60.0065 14.0933 59.9105 14.328 59.7185 14.52C59.5372 14.712 59.3132 14.808 59.0465 14.808ZM59.7505 16.232V25H58.2945V16.232H59.7505ZM65.336 25.144C64.664 25.144 64.0613 25.032 63.528 24.808C62.9947 24.5733 62.5733 24.2533 62.264 23.848C61.9547 23.432 61.784 22.9573 61.752 22.424H63.256C63.2987 22.8613 63.5013 23.2187 63.864 23.496C64.2373 23.7733 64.7227 23.912 65.32 23.912C65.8747 23.912 66.312 23.7893 66.632 23.544C66.952 23.2987 67.112 22.9893 67.112 22.616C67.112 22.232 66.9413 21.9493 66.6 21.768C66.2587 21.576 65.7307 21.3893 65.016 21.208C64.3653 21.0373 63.832 20.8667 63.416 20.696C63.0107 20.5147 62.6587 20.2533 62.36 19.912C62.072 19.56 61.928 19.1013 61.928 18.536C61.928 18.088 62.0613 17.6773 62.328 17.304C62.5947 16.9307 62.9733 16.6373 63.464 16.424C63.9547 16.2 64.5147 16.088 65.144 16.088C66.1147 16.088 66.8987 16.3333 67.496 16.824C68.0933 17.3147 68.4133 17.9867 68.456 18.84H67C66.968 18.3813 66.7813 18.0133 66.44 17.736C66.1093 17.4587 65.6613 17.32 65.096 17.32C64.5733 17.32 64.1573 17.432 63.848 17.656C63.5387 17.88 63.384 18.1733 63.384 18.536C63.384 18.824 63.4747 19.064 63.656 19.256C63.848 19.4373 64.0827 19.5867 64.36 19.704C64.648 19.8107 65.0427 19.9333 65.544 20.072C66.1733 20.2427 66.6853 20.4133 67.08 20.584C67.4747 20.744 67.8107 20.9893 68.088 21.32C68.376 21.6507 68.5253 22.0827 68.536 22.616C68.536 23.096 68.4027 23.528 68.136 23.912C67.8693 24.296 67.4907 24.6 67 24.824C66.52 25.0373 65.9653 25.144 65.336 25.144ZM78.3674 16.232V25H76.9114V23.704C76.634 24.152 76.2447 24.504 75.7434 24.76C75.2527 25.0053 74.7087 25.128 74.1114 25.128C73.4287 25.128 72.8154 24.9893 72.2714 24.712C71.7274 24.424 71.2954 23.9973 70.9754 23.432C70.666 22.8667 70.5114 22.1787 70.5114 21.368V16.232H71.9514V21.176C71.9514 22.04 72.17 22.7067 72.6074 23.176C73.0447 23.6347 73.642 23.864 74.3994 23.864C75.178 23.864 75.7914 23.624 76.2394 23.144C76.6874 22.664 76.9114 21.9653 76.9114 21.048V16.232H78.3674ZM80.2818 20.584C80.2818 19.688 80.4631 18.904 80.8258 18.232C81.1884 17.5493 81.6844 17.0213 82.3138 16.648C82.9538 16.2747 83.6631 16.088 84.4418 16.088C85.2098 16.088 85.8764 16.2533 86.4418 16.584C87.0071 16.9147 87.4284 17.3307 87.7058 17.832V16.232H89.1778V25H87.7058V23.368C87.4178 23.88 86.9858 24.3067 86.4098 24.648C85.8444 24.9787 85.1831 25.144 84.4258 25.144C83.6471 25.144 82.9431 24.952 82.3138 24.568C81.6844 24.184 81.1884 23.6453 80.8258 22.952C80.4631 22.2587 80.2818 21.4693 80.2818 20.584ZM87.7058 20.6C87.7058 19.9387 87.5724 19.3627 87.3058 18.872C87.0391 18.3813 86.6764 18.008 86.2178 17.752C85.7698 17.4853 85.2738 17.352 84.7298 17.352C84.1858 17.352 83.6898 17.48 83.2418 17.736C82.7938 17.992 82.4364 18.3653 82.1698 18.856C81.9031 19.3467 81.7698 19.9227 81.7698 20.584C81.7698 21.256 81.9031 21.8427 82.1698 22.344C82.4364 22.8347 82.7938 23.2133 83.2418 23.48C83.6898 23.736 84.1858 23.864 84.7298 23.864C85.2738 23.864 85.7698 23.736 86.2178 23.48C86.6764 23.2133 87.0391 22.8347 87.3058 22.344C87.5724 21.8427 87.7058 21.2613 87.7058 20.6ZM93.0943 13.16V25H91.6383V13.16H93.0943ZM96.3278 14.808C96.0504 14.808 95.8158 14.712 95.6238 14.52C95.4318 14.328 95.3358 14.0933 95.3358 13.816C95.3358 13.5387 95.4318 13.304 95.6238 13.112C95.8158 12.92 96.0504 12.824 96.3278 12.824C96.5944 12.824 96.8184 12.92 96.9998 13.112C97.1918 13.304 97.2878 13.5387 97.2878 13.816C97.2878 14.0933 97.1918 14.328 96.9998 14.52C96.8184 14.712 96.5944 14.808 96.3278 14.808ZM97.0318 16.232V25H95.5758V16.232H97.0318ZM100.601 23.8H104.905V25H98.9373V23.8L103.193 17.416H98.9693V16.232H104.873V17.416L100.601 23.8ZM106.251 20.584C106.251 19.688 106.432 18.904 106.795 18.232C107.157 17.5493 107.653 17.0213 108.283 16.648C108.923 16.2747 109.632 16.088 110.411 16.088C111.179 16.088 111.845 16.2533 112.411 16.584C112.976 16.9147 113.397 17.3307 113.675 17.832V16.232H115.147V25H113.675V23.368C113.387 23.88 112.955 24.3067 112.379 24.648C111.813 24.9787 111.152 25.144 110.395 25.144C109.616 25.144 108.912 24.952 108.283 24.568C107.653 24.184 107.157 23.6453 106.795 22.952C106.432 22.2587 106.251 21.4693 106.251 20.584ZM113.675 20.6C113.675 19.9387 113.541 19.3627 113.275 18.872C113.008 18.3813 112.645 18.008 112.187 17.752C111.739 17.4853 111.243 17.352 110.699 17.352C110.155 17.352 109.659 17.48 109.211 17.736C108.763 17.992 108.405 18.3653 108.139 18.856C107.872 19.3467 107.739 19.9227 107.739 20.584C107.739 21.256 107.872 21.8427 108.139 22.344C108.405 22.8347 108.763 23.2133 109.211 23.48C109.659 23.736 110.155 23.864 110.699 23.864C111.243 23.864 111.739 23.736 112.187 23.48C112.645 23.2133 113.008 22.8347 113.275 22.344C113.541 21.8427 113.675 21.2613 113.675 20.6ZM119.383 17.432V22.6C119.383 23.0267 119.474 23.3307 119.655 23.512C119.836 23.6827 120.151 23.768 120.599 23.768H121.671V25H120.359C119.548 25 118.94 24.8133 118.535 24.44C118.13 24.0667 117.927 23.4533 117.927 22.6V17.432H116.791V16.232H117.927V14.024H119.383V16.232H121.671V17.432H119.383ZM124.187 14.808C123.91 14.808 123.675 14.712 123.483 14.52C123.291 14.328 123.195 14.0933 123.195 13.816C123.195 13.5387 123.291 13.304 123.483 13.112C123.675 12.92 123.91 12.824 124.187 12.824C124.454 12.824 124.678 12.92 124.859 13.112C125.051 13.304 125.147 13.5387 125.147 13.816C125.147 14.0933 125.051 14.328 124.859 14.52C124.678 14.712 124.454 14.808 124.187 14.808ZM124.891 16.232V25H123.435V16.232H124.891ZM131.197 25.144C130.375 25.144 129.629 24.9573 128.957 24.584C128.295 24.2107 127.773 23.6827 127.389 23C127.015 22.3067 126.829 21.5067 126.829 20.6C126.829 19.704 127.021 18.9147 127.405 18.232C127.799 17.5387 128.333 17.0107 129.005 16.648C129.677 16.2747 130.429 16.088 131.261 16.088C132.093 16.088 132.845 16.2747 133.517 16.648C134.189 17.0107 134.717 17.5333 135.101 18.216C135.495 18.8987 135.693 19.6933 135.693 20.6C135.693 21.5067 135.49 22.3067 135.085 23C134.69 23.6827 134.151 24.2107 133.469 24.584C132.786 24.9573 132.029 25.144 131.197 25.144ZM131.197 23.864C131.719 23.864 132.21 23.7413 132.669 23.496C133.127 23.2507 133.495 22.8827 133.773 22.392C134.061 21.9013 134.205 21.304 134.205 20.6C134.205 19.896 134.066 19.2987 133.789 18.808C133.511 18.3173 133.149 17.9547 132.701 17.72C132.253 17.4747 131.767 17.352 131.245 17.352C130.711 17.352 130.221 17.4747 129.773 17.72C129.335 17.9547 128.983 18.3173 128.717 18.808C128.45 19.2987 128.317 19.896 128.317 20.6C128.317 21.3147 128.445 21.9173 128.701 22.408C128.967 22.8987 129.319 23.2667 129.757 23.512C130.194 23.7467 130.674 23.864 131.197 23.864ZM141.879 16.072C142.946 16.072 143.81 16.3973 144.471 17.048C145.132 17.688 145.463 18.616 145.463 19.832V25H144.023V20.04C144.023 19.1653 143.804 18.4987 143.367 18.04C142.93 17.5707 142.332 17.336 141.575 17.336C140.807 17.336 140.194 17.576 139.735 18.056C139.287 18.536 139.063 19.2347 139.063 20.152V25H137.607V16.232H139.063V17.48C139.351 17.032 139.74 16.6853 140.231 16.44C140.732 16.1947 141.282 16.072 141.879 16.072Z" fill="#DFDFDF"/>
</svg>
